<?xml version="1.0" standalone="no"?>
<!DOCTYPE svg PUBLIC "-//W3C//DTD SVG 1.1//EN" "http://www.w3.org/Graphics/SVG/1.1/DTD/svg11.dtd" >
<svg>
<metadata>
Created by FontForge 20090914 at Tue Jul  9 11:52:34 2013
 By www-data
</metadata>
<defs>
<font id="icomoon" horiz-adv-x="1536" >
  <font-face 
    font-family="icomoon"
    font-weight="400"
    font-stretch="normal"
    units-per-em="1536"
    panose-1="2 0 5 3 0 0 0 0 0 0"
    ascent="1472"
    descent="-64"
    bbox="-12 -64.6683 1873 1472.67"
    underline-thickness="0"
    underline-position="0"
    unicode-range="U+0021-U+F090"
  />
<missing-glyph 
 />
    <glyph glyph-name=".notdef" 
 />
    <glyph glyph-name=".notdef" 
 />
    <glyph glyph-name="exclam" unicode="!" 
d="M480 514c-40.667 20 -83.3301 29.998 -127.997 29.998c-79.333 0 -147.166 -28.167 -203.499 -84.5s-84.5 -124.166 -84.5 -203.499s28.167 -147.166 84.5 -203.499s124.166 -84.5 203.499 -84.5s147.166 28.167 203.499 84.5s84.5 124.166 84.5 203.499v640
c0 17.333 6.33301 32.333 19 45s27.667 19 45 19h544c17.333 0 32.333 -6.33301 45 -19s19 -27.667 19 -45v-382c-40.667 20 -83.334 30 -128.001 30c-79.333 0 -147.166 -28.167 -203.499 -84.5s-84.5 -124.166 -84.5 -203.499s28.167 -147.166 84.5 -203.499
s124.166 -84.5 203.499 -84.5s147.166 28.167 203.499 84.5s84.5 124.166 84.5 203.499v1082c0 19.333 -6.83301 35.833 -20.5 49.5s-30.167 20.5 -49.5 20.5h-852c-19.333 0 -35.833 -6.83301 -49.5 -20.5s-20.5 -30.167 -20.5 -49.5v-824z" />
    <glyph glyph-name="quotedbl" unicode="&#x22;" 
d="M1343 1088h-190l191 191l-188 193h-268l192 -191l-196 -193h-227l195 191l-193 193h-271l191 -191l-196 -193h-192l194 191l-192 193h-193v-1536h1536v1536h-188l188 -192zM1344 128h-1152v192h1152v-192zM1344 512h-1152v192h1152v-192z" />
    <glyph glyph-name="numbersign" unicode="#" 
d="M768 -64c-139.333 0 -267.833 34.333 -385.5 103s-210.834 161.834 -279.501 279.501s-103 246.167 -103 385.5s34.333 267.833 103 385.5s161.834 210.834 279.501 279.501s246.167 103 385.5 103s267.833 -34.333 385.5 -103s210.834 -161.834 279.501 -279.501
s103 -246.167 103 -385.5s-34.333 -267.833 -103 -385.5s-161.834 -210.834 -279.501 -279.501s-246.167 -103 -385.5 -103zM768 1280c-104 0 -200.333 -25.667 -289 -77s-158.667 -121.333 -210 -210s-77 -185 -77 -289s25.667 -200.333 77 -289s121.333 -158.667 210 -210
s185 -77 289 -77s200.333 25.667 289 77s158.667 121.333 210 210s77 185 77 289s-25.667 200.333 -77 289s-121.333 158.667 -210 210s-185 77 -289 77zM864 320h-192v288h-288v192h288v288h192v-288h288v-192h-288v-288z" />
    <glyph glyph-name="dollar" unicode="$" 
d="M768 -64c-139.333 0 -267.833 34.333 -385.5 103s-210.834 161.834 -279.501 279.501s-103 246.167 -103 385.5s34.333 267.833 103 385.5s161.834 210.834 279.501 279.501s246.167 103 385.5 103s267.833 -34.333 385.5 -103s210.834 -161.834 279.501 -279.501
s103 -246.167 103 -385.5s-34.333 -267.833 -103 -385.5s-161.834 -210.834 -279.501 -279.501s-246.167 -103 -385.5 -103zM768 1280c-104 0 -200.333 -25.667 -289 -77s-158.667 -121.333 -210 -210s-77 -185 -77 -289s25.667 -200.333 77 -289s121.333 -158.667 210 -210
s185 -77 289 -77s200.333 25.667 289 77s158.667 121.333 210 210s77 185 77 289s-25.667 200.333 -77 289s-121.333 158.667 -210 210s-185 77 -289 77zM384 800h768v-192h-768v192z" />
    <glyph glyph-name="percent" unicode="%" 
d="M1064 1058c-130.667 26.667 -261.334 40 -392.001 40s-261.334 -13.333 -392.001 -40c-18 -4 -30 -14.667 -36 -32c-34.667 -105.333 -52 -211 -52 -317s17.333 -211.667 52 -317c6 -17.333 18 -28 36 -32c130.667 -26.667 261.334 -40 392.001 -40
s261.334 13.333 392.001 40c18 4 30 14.667 36 32c34.667 105.333 52 211 52 317s-17.333 211.667 -52 317c-6 17.333 -18 28 -36 32zM1055 407c-255.333 -52 -510.333 -52 -765 0c-66 201.333 -66 402.666 0 603.999c254.667 52.667 509.667 52.667 765 0
c66 -201.333 66 -402.666 0 -603.999zM1481 1169c-4.66699 19.333 -14.502 35.666 -29.502 48.999s-32.5 21.333 -52.5 24c-210 25.333 -420.333 38 -631 38c-210 0 -420.333 -12.667 -631 -38c-20 -2.66699 -37.333 -10.667 -52 -24s-24.334 -29.666 -29.001 -48.999
c-74 -310 -74 -620 0 -930c4.66699 -19.333 14.334 -35.666 29.001 -48.999s32 -21.333 52 -24c96.667 -11.333 198 -20.333 304 -27c-6 -4 -9 -7.66699 -9 -11c0 -13.333 32.833 -24.666 98.5 -33.999s144.834 -14 237.501 -14s171.834 4.66699 237.501 14
s98.5 20.666 98.5 33.999c0 3.33301 -3 7 -9 11c106 6.66699 207.333 15.667 304 27c20 2.66699 37.5 10.667 52.5 24s24.833 29.666 29.5 48.999c74 310 74 620 0 930zM1388 262c-413.333 -50.667 -826.333 -50.667 -1239 0c-70 294.667 -70 589.334 0 884.001
c412.667 50.667 825.667 50.667 1239 0c70 -294.667 70 -589.334 0 -884.001zM1272 896c20 0 37 7 51 21s21 31 21 51s-7 37 -21 51s-31 21 -51 21s-37 -7 -51 -21s-21 -31 -21 -51s7 -37 21 -51s31 -21 51 -21zM1272 992c6.66699 0 12.334 -2.33301 17.001 -7
s7 -10.334 7 -17.001s-2.33301 -12.334 -7 -17.001s-10.334 -7 -17.001 -7s-12.334 2.33301 -17.001 7s-7 10.334 -7 17.001s2.33301 12.334 7 17.001s10.334 7 17.001 7zM1320 416c6.66699 0 12.334 -2.33301 17.001 -7s7 -10.334 7 -17.001s-2.33301 -12.334 -7 -17.001
s-10.334 -7 -17.001 -7h-144c-6.66699 0 -12.334 2.33301 -17.001 7s-7 10.334 -7 17.001s2.33301 12.334 7 17.001s10.334 7 17.001 7h144zM1368 560c6.66699 0 12.334 -2.33301 17.001 -7s7 -10.334 7 -17.001s-2.33301 -12.334 -7 -17.001s-10.334 -7 -17.001 -7h-144
c-6.66699 0 -12.334 2.33301 -17.001 7s-7 10.334 -7 17.001s2.33301 12.334 7 17.001s10.334 7 17.001 7h144zM1368 704c6.66699 0 12.334 -2.33301 17.001 -7s7 -10.334 7 -17.001s-2.33301 -12.334 -7 -17.001s-10.334 -7 -17.001 -7h-144
c-6.66699 0 -12.334 2.33301 -17.001 7s-7 10.334 -7 17.001s2.33301 12.334 7 17.001s10.334 7 17.001 7h144zM647.998 905c6.66699 0.666992 12.334 -1.33105 17.001 -5.99805s7 -10.334 7 -17.001s-2.33301 -12.334 -7 -17.001s-10.334 -7 -17.001 -7l-180 -13
c-6.66699 -0.666992 -12.5 -3.5 -17.5 -8.5s-8.16699 -10.833 -9.5 -17.5l-8 -91c0 -6.66699 -2.5 -12.334 -7.5 -17.001s-10.833 -7 -17.5 -7s-12.167 2.33301 -16.5 7s-6.16602 10.334 -5.49902 17.001l14 134c1.33301 6.66699 4.66602 12.5 9.99902 17.5
s11.333 7.83301 18 8.5z" />
    <glyph glyph-name="ampersand" unicode="&#x26;" 
d="M1508 877l-567.008 567c-21.333 21.333 -47.666 30.666 -78.999 27.999h-188c-31.333 2.66699 -57.666 -6.66602 -78.999 -27.999l-115 -115v143h-288v-431l-164 -164c-21.333 -21.333 -30.666 -48 -27.999 -80v-189c0 -26.667 9.33301 -49.334 28 -68.001
s41.334 -28 68.001 -28h96v-480c0 -26.667 9.33301 -49.334 28 -68.001s41.334 -28 68.001 -28h960c26.667 0 49.334 9.33301 68.001 28s28 41.334 28 68.001v480h96c26.667 0 49.334 9.33301 68.001 28s28 41.334 28 68.001v189c2.66699 32 -6.66602 58.667 -27.999 80z
M1343.99 704h-192v-576h-192v384h-384v-384h-192v576h-192v53l523 523h106l523 -523v-53z" />
    <glyph glyph-name="quotesingle" unicode="'" 
d="M816 1472h-96.0059c-71.333 0 -139.666 -14 -204.999 -42s-121.5 -65.5 -168.5 -112.5s-84.5 -103.167 -112.5 -168.5s-42 -133.666 -42 -204.999c0 -101.333 26.333 -194 79 -278s122.334 -148 209.001 -192v-58c0 -26.667 9.33301 -49.334 28 -68.001
s41.334 -28 68.001 -28h384c26.667 0 49.334 9.33301 68.001 28s28 41.334 28 68.001v58c86.667 44 156.334 108 209.001 192s79 176.667 79 278c0 71.333 -14 139.666 -42 204.999s-65.5 121.5 -112.5 168.5s-103.167 84.5 -168.5 112.5s-133.666 42 -204.999 42z
M863.994 611l-0.00195312 -99h-192v99c-82 12 -150.5 49.5 -205.5 112.5s-82.5 136.5 -82.5 220.5c0 92.667 32.833 171.834 98.5 237.501s144.834 98.5 237.501 98.5h96c92.667 0 171.834 -32.833 237.501 -98.5s98.5 -144.834 98.5 -237.501
c0 -84 -27.5 -157.5 -82.5 -220.5s-123.5 -100.5 -205.5 -112.5zM623.992 224h288c13.333 0 24.666 -4.66699 33.999 -14s14 -20.666 14 -33.999s-4.66699 -24.666 -14 -33.999s-20.666 -14 -33.999 -14h-288c-13.333 0 -24.666 4.66699 -33.999 14s-14 20.666 -14 33.999
s4.66699 24.666 14 33.999s20.666 14 33.999 14zM719.992 32h96c13.333 0 24.666 -4.66699 33.999 -14s14 -20.666 14 -33.999s-4.66699 -24.666 -14 -33.999s-20.666 -14 -33.999 -14h-96c-13.333 0 -24.666 4.66699 -33.999 14s-14 20.666 -14 33.999
s4.66699 24.666 14 33.999s20.666 14 33.999 14z" />
    <glyph glyph-name="parenleft" unicode="(" 
d="M768 1088c-106 0 -196.5 -37.5 -271.5 -112.5s-112.5 -165.5 -112.5 -271.5s37.5 -196.5 112.5 -271.5s165.5 -112.5 271.5 -112.5s196.5 37.5 271.5 112.5s112.5 165.5 112.5 271.5s-37.5 196.5 -112.5 271.5s-165.5 112.5 -271.5 112.5zM768 512
c-53.333 0 -98.666 18.6689 -135.999 56.002s-56 82.666 -56 135.999s18.667 98.666 56 135.999s82.666 56 135.999 56v-384zM768 1280c26.667 0 49.334 9.33301 68.001 28s28 41.334 28 68.001s-9.33301 49.334 -28 68.001s-41.334 28 -68.001 28
s-49.334 -9.33301 -68.001 -28s-28 -41.334 -28 -68.001s9.33301 -49.334 28 -68.001s41.334 -28 68.001 -28zM288 1088c26.667 0 49.334 9.33301 68.001 28s28 41.334 28 68.001s-9.33301 49.334 -28 68.001s-41.334 28 -68.001 28s-49.334 -9.33301 -68.001 -28
s-28 -41.334 -28 -68.001s9.33301 -49.334 28 -68.001s41.334 -28 68.001 -28zM96 800.002c-26.667 0 -49.334 -9.33301 -68.001 -28s-28 -41.334 -28 -68.001s9.33301 -49.334 28 -68.001s41.334 -28 68.001 -28s49.334 9.33301 68.001 28s28 41.334 28 68.001
s-9.33301 49.334 -28 68.001s-41.334 28 -68.001 28zM288 320.002c-26.667 0 -49.334 -9.33301 -68.001 -28s-28 -41.334 -28 -68.001s9.33301 -49.334 28 -68.001s41.334 -28 68.001 -28s49.334 9.33301 68.001 28s28 41.334 28 68.001s-9.33301 49.334 -28 68.001
s-41.334 28 -68.001 28zM768 128.002c-26.667 0 -49.334 -9.33301 -68.001 -28s-28 -41.334 -28 -68.001s9.33301 -49.334 28 -68.001s41.334 -28 68.001 -28s49.334 9.33301 68.001 28s28 41.334 28 68.001s-9.33301 49.334 -28 68.001s-41.334 28 -68.001 28z
M1248 320.002c-26.667 0 -49.334 -9.33301 -68.001 -28s-28 -41.334 -28 -68.001s9.33301 -49.334 28 -68.001s41.334 -28 68.001 -28s49.334 9.33301 68.001 28s28 41.334 28 68.001s-9.33301 49.334 -28 68.001s-41.334 28 -68.001 28zM1440 800.002
c-26.667 0 -49.334 -9.33301 -68.001 -28s-28 -41.334 -28 -68.001s9.33301 -49.334 28 -68.001s41.334 -28 68.001 -28s49.334 9.33301 68.001 28s28 41.334 28 68.001s-9.33301 49.334 -28 68.001s-41.334 28 -68.001 28zM1248 1088c26.667 0 49.334 9.33301 68.001 28
s28 41.334 28 68.001s-9.33301 49.334 -28 68.001s-41.334 28 -68.001 28s-49.334 -9.33301 -68.001 -28s-28 -41.334 -28 -68.001s9.33301 -49.334 28 -68.001s41.334 -28 68.001 -28z" />
    <glyph glyph-name="parenright" unicode=")" 
d="M96 800c-26.667 0 -49.334 -9.33301 -68.001 -28s-28 -41.334 -28 -68.001s9.33301 -49.334 28 -68.001s41.334 -28 68.001 -28s49.334 9.33301 68.001 28s28 41.334 28 68.001s-9.33301 49.334 -28 68.001s-41.334 28 -68.001 28zM288 1088
c26.667 0 49.334 9.33301 68.001 28s28 41.334 28 68.001s-9.33301 49.334 -28 68.001s-41.334 28 -68.001 28s-49.334 -9.33301 -68.001 -28s-28 -41.334 -28 -68.001s9.33301 -49.334 28 -68.001s41.334 -28 68.001 -28zM768 1280c26.667 0 49.334 9.33301 68.001 28
s28 41.334 28 68.001s-9.33301 49.334 -28 68.001s-41.334 28 -68.001 28s-49.334 -9.33301 -68.001 -28s-28 -41.334 -28 -68.001s9.33301 -49.334 28 -68.001s41.334 -28 68.001 -28zM288 320c-26.667 0 -49.334 -9.33301 -68.001 -28s-28 -41.334 -28 -68.001
s9.33301 -49.334 28 -68.001s41.334 -28 68.001 -28s49.334 9.33301 68.001 28s28 41.334 28 68.001s-9.33301 49.334 -28 68.001s-41.334 28 -68.001 28zM1248 320c-26.667 0 -49.334 -9.33301 -68.001 -28s-28 -41.334 -28 -68.001s9.33301 -49.334 28 -68.001
s41.334 -28 68.001 -28s49.334 9.33301 68.001 28s28 41.334 28 68.001s-9.33301 49.334 -28 68.001s-41.334 28 -68.001 28zM768 1088c-106 0 -196.5 -37.5 -271.5 -112.5s-112.5 -165.5 -112.5 -271.5s37.5 -196.5 112.5 -271.5s165.5 -112.5 271.5 -112.5
s196.5 37.5 271.5 112.5s112.5 165.5 112.5 271.5s-37.5 196.5 -112.5 271.5s-165.5 112.5 -271.5 112.5zM768 512c-53.333 0 -98.666 18.667 -135.999 56s-56 82.666 -56 135.999s18.667 98.666 56 135.999s82.666 56 135.999 56s98.666 -18.667 135.999 -56
s56 -82.666 56 -135.999s-18.667 -98.666 -56 -135.999s-82.666 -56 -135.999 -56zM1440 800c-26.667 0 -49.334 -9.33301 -68.001 -28s-28 -41.334 -28 -68.001s9.33301 -49.334 28 -68.001s41.334 -28 68.001 -28s49.334 9.33301 68.001 28s28 41.334 28 68.001
s-9.33301 49.334 -28 68.001s-41.334 28 -68.001 28zM768 128c-26.667 0 -49.334 -9.33301 -68.001 -28s-28 -41.334 -28 -68.001s9.33301 -49.334 28 -68.001s41.334 -28 68.001 -28s49.334 9.33301 68.001 28s28 41.334 28 68.001s-9.33301 49.334 -28 68.001
s-41.334 28 -68.001 28zM1248 1088c26.667 0 49.334 9.33301 68.001 28s28 41.334 28 68.001s-9.33301 49.334 -28 68.001s-41.334 28 -68.001 28s-49.334 -9.33301 -68.001 -28s-28 -41.334 -28 -68.001s9.33301 -49.334 28 -68.001s41.334 -28 68.001 -28z" />
    <glyph glyph-name="asterisk" unicode="*" 
d="M768 1136c0 -78 19.167 -150.165 57.5 -216.498s90.666 -118.833 156.999 -157.5s138.5 -58 216.5 -58c137.333 0 246 62.667 326 188c8.66699 -1.33301 12 -64 10 -188c-1.33301 -104.667 -22.333 -204.334 -63 -299.001s-95.167 -176.167 -163.5 -244.5
s-149.5 -122.833 -243.5 -163.5s-193.167 -61 -297.5 -61s-203.833 20.333 -298.5 61s-176.334 95.167 -245.001 163.5s-123.167 150 -163.5 245s-60.5 194.5 -60.5 298.5s20.167 203.167 60.5 297.5s94.833 175.666 163.5 243.999s150.334 122.833 245.001 163.5
s194.334 61.667 299.001 63c44.667 0.666992 108 -1 190 -5l-7 -7c-17.333 -17.333 -31.333 -31.833 -42 -43.5s-26 -30.167 -46 -55.5s-36 -48.5 -48 -69.5s-22.833 -45.667 -32.5 -74s-14.5 -55.5 -14.5 -81.5zM576 992.002c0 101.333 29.665 193.999 88.998 277.999
c-88.667 -16 -169 -50.667 -241 -104s-128.667 -120.5 -170 -201.5s-62 -167.833 -62 -260.5c0 -78 15.167 -152.667 45.5 -224s71.166 -132.666 122.499 -183.999s112.5 -92.166 183.5 -122.499s145.833 -45.5 224.5 -45.5c92.667 0 179.334 20.667 260.001 62
s147.667 98 201 170s88 152.667 104 242c-83.333 -60 -175.666 -90 -276.999 -90c-65.333 0 -127.666 12.667 -186.999 38s-110.333 59.333 -153 102s-76.667 93.667 -102 153s-38 121.666 -38 186.999z" />
    <glyph glyph-name="plus" unicode="+" horiz-adv-x="1728" 
d="M1200 1088c-4.66699 0 -9.83301 -0.331055 -15.5 -0.998047s-11.667 -1.33398 -18 -2.00098s-11.5 -1.33398 -15.5 -2.00098c-56 89.333 -130.5 160.5 -223.5 213.5s-194.167 79.5 -303.5 79.5c-84.667 0 -165.5 -16.5 -242.5 -49.5s-143.333 -77.333 -199 -133
s-100 -122 -133 -199s-49.5 -157.833 -49.5 -242.5v-96c0 -80.667 15 -158 45 -232s70.667 -138.667 122 -194s112.5 -100.666 183.5 -135.999s146.167 -56 225.5 -62h672c88.667 8 169.667 36.5 243 85.5s131.166 112.5 173.499 190.5s63.5 162 63.5 252
c0 71.333 -14 139.666 -42 204.999s-65.5 121.5 -112.5 168.5s-103.167 84.5 -168.5 112.5s-133.666 42 -204.999 42zM1248 224.002l-671.995 0.00195312c-45.333 5.33301 -95.333 22 -150 50l-1 0.5c-0.666992 0.333008 -1.33398 0.833008 -2.00098 1.5
c-22 11.333 -42.333 24 -61 38c-0.666992 1.33301 -2 2.66602 -4 3.99902s-3.33301 2.33301 -4 3c-18.667 15.333 -34.334 30 -47.001 44c-2 2 -4.5 4.83301 -7.5 8.5s-4.83301 6.16699 -5.5 7.5c-15.333 18 -26.666 32.667 -33.999 44
c-0.666992 0.666992 -6 10.334 -16 29.001c-10.667 20.667 -17.334 34.334 -20.001 41.001c-2.66699 6 -7.33398 21 -14.001 45c-0.666992 0.666992 -2.16699 5 -4.5 13l-5.5 19c-5.33301 28.667 -8 56.667 -8 84v96c0 119.333 42.167 221.166 126.5 305.499
s186.166 126.5 305.499 126.5c30 0 61.333 -3.66699 94 -11l9 -3c4 -1.33301 7 -2 9 -2c26 -7.33301 49.667 -16 71 -26c1.33301 -0.666992 3.16602 -1.66699 5.49902 -3s4.16602 -2.33301 5.49902 -3c24.667 -12.667 48 -27.334 70 -44.001l3 -3
c77.333 -61.333 127.666 -139.333 150.999 -234c50 27.333 102.667 41 158 41c92.667 0 171.834 -32.833 237.501 -98.5s98.5 -144.834 98.5 -237.501c0 -84 -27.667 -158 -83 -222s-123.666 -102 -204.999 -114z" />
    <glyph glyph-name="comma" unicode="," 
d="M768 -64c-139.333 0 -267.833 34.333 -385.5 103s-210.834 161.834 -279.501 279.501s-103 246.167 -103 385.5s34.333 267.833 103 385.5s161.834 210.834 279.501 279.501s246.167 103 385.5 103s267.833 -34.333 385.5 -103s210.834 -161.834 279.501 -279.501
s103 -246.167 103 -385.5s-34.333 -267.833 -103 -385.5s-161.834 -210.834 -279.501 -279.501s-246.167 -103 -385.5 -103zM768 1280c-104 0 -200.333 -25.667 -289 -77s-158.667 -121.333 -210 -210s-77 -185 -77 -289s25.667 -200.333 77 -289s121.333 -158.667 210 -210
s185 -77 289 -77s200.333 25.667 289 77s158.667 121.333 210 210s77 185 77 289s-25.667 200.333 -77 289s-121.333 158.667 -210 210s-185 77 -289 77zM768 320c-106 0 -196.5 37.5 -271.5 112.5s-112.5 165.5 -112.5 271.5s37.5 196.5 112.5 271.5
s165.5 112.5 271.5 112.5s196.5 -37.5 271.5 -112.5s112.5 -165.5 112.5 -271.5s-37.5 -196.5 -112.5 -271.5s-165.5 -112.5 -271.5 -112.5z" />
    <glyph glyph-name="hyphen" unicode="-" 
d="M1440 1184h-383.998v192c0 26.667 -9.33301 49.334 -28 68.001s-41.334 28 -68.001 28h-384c-26.667 0 -49.334 -9.33301 -68.001 -28s-28 -41.334 -28 -68.001v-192h-192v96h-192v-96c-26.667 0 -49.334 -9.33301 -68.001 -28s-28 -41.334 -28 -68.001v-1056
c0 -26.667 9.33301 -49.334 28 -68.001s41.334 -28 68.001 -28h1344c26.667 0 49.334 9.33301 68.001 28s28 41.334 28 68.001v1056c0 26.667 -9.33301 49.334 -28 68.001s-41.334 28 -68.001 28zM672.002 1280h192v-96h-192v96zM1344 128h-1152v864h1152v-864zM768.002 320
c79.333 0 147.166 28.167 203.499 84.5s84.5 124.166 84.5 203.499s-28.167 147.166 -84.5 203.499s-124.166 84.5 -203.499 84.5s-147.166 -28.167 -203.499 -84.5s-84.5 -124.166 -84.5 -203.499s28.167 -147.166 84.5 -203.499s124.166 -84.5 203.499 -84.5zM768.002 704
c26.667 0 49.334 -9.33301 68.001 -28s28 -41.334 28 -68.001s-9.33301 -49.334 -28 -68.001s-41.334 -28 -68.001 -28s-49.334 9.33301 -68.001 28s-28 41.334 -28 68.001s9.33301 49.334 28 68.001s41.334 28 68.001 28z" />
    <glyph glyph-name="period" unicode="." 
d="M768 1472c-104 0 -200.33 -25.667 -288.997 -77s-158.667 -121.333 -210 -210s-77 -185 -77 -289c0 -59.333 19.833 -132.833 59.5 -220.5s87.667 -173 144 -256s112.666 -161.667 168.999 -236s104.166 -134.166 143.499 -179.499l60 -68l33 37
c14 16 40.833 48.333 80.5 97l114 144.5c36.333 47.667 76.666 104.167 120.999 169.5s82.333 126.5 114 183.5s58.5 115.167 80.5 174.5s33 110.666 33 153.999c0 104 -25.667 200.333 -77 289s-121.333 158.667 -210 210s-185 77 -289 77zM768.003 512
c-106 0 -196.5 37.5 -271.5 112.5s-112.5 165.5 -112.5 271.5s37.5 196.5 112.5 271.5s165.5 112.5 271.5 112.5s196.5 -37.5 271.5 -112.5s112.5 -165.5 112.5 -271.5s-37.5 -196.5 -112.5 -271.5s-165.5 -112.5 -271.5 -112.5zM768.003 1088
c-53.333 0 -98.666 -18.667 -135.999 -56s-56 -82.666 -56 -135.999s18.667 -98.666 56 -135.999s82.666 -56 135.999 -56s98.666 18.667 135.999 56s56 82.666 56 135.999s-18.667 98.666 -56 135.999s-82.666 56 -135.999 56z" />
    <glyph glyph-name="slash" unicode="/" 
d="M0 -64h768v1536h-768v-1536zM480 1280h192v-192h-192v192zM480 896h192v-192h-192v192zM480 512h192v-192h-192v192zM96 1280h192v-192h-192v192zM96 896h192v-192h-192v192zM96 512h192v-192h-192v192zM864 992h672v-96h-672v96zM864 -64h192v384h288v-384h192v864h-672
v-864z" />
    <glyph glyph-name="zero" unicode="0" 
d="M576 1040c0 -66 23.5 -122.5 70.5 -169.5s103.5 -70.5 169.5 -70.5s122.5 23.5 169.5 70.5s70.5 103.5 70.5 169.5s-23.5 122.5 -70.5 169.5s-103.5 70.5 -169.5 70.5s-122.5 -23.5 -169.5 -70.5s-70.5 -103.5 -70.5 -169.5zM0 1040c0 -66 23.5 -122.5 70.5 -169.5
s103.5 -70.5 169.5 -70.5s122.5 23.5 169.5 70.5s70.5 103.5 70.5 169.5s-23.5 122.5 -70.5 169.5s-103.5 70.5 -169.5 70.5s-122.5 -23.5 -169.5 -70.5s-70.5 -103.5 -70.5 -169.5zM1152 560v144c0 26.667 -9.33301 49.334 -28 68.001s-41.334 28 -68.001 28h-240h-576
h-144c-26.667 0 -49.334 -9.33301 -68.001 -28s-28 -41.334 -28 -68.001v-480c0 -26.667 9.33301 -49.334 28 -68.001s41.334 -28 68.001 -28h960c26.667 0 49.334 9.33301 68.001 28s28 41.334 28 68.001v144l384 -240v672zM960 320h-768v288h768v-288z" />
    <glyph glyph-name="one" unicode="1" 
d="M0 1280v-1152h1536v1152h-1536zM288 224h-192v192h192v-192zM288 608h-192v192h192v-192zM288 992h-192v192h192v-192zM1152 224h-768v960h768v-960zM1440 224h-192v192h192v-192zM1440 608h-192v192h192v-192zM1440 992h-192v192h192v-192zM576 992v-576l384 288z" />
    <glyph glyph-name="uniE000" unicode="&#xe000;" 
d="M480 896h192v-192h-192v192zM768 896h192v-192h-192v192zM1056 896h192v-192h-192v192zM192 320h192v-192h-192v192zM480 320h192v-192h-192v192zM768 320h192v-192h-192v192zM480 608h192v-192h-192v192zM768 608h192v-192h-192v192zM1056 608h192v-192h-192v192z
M192 608h192v-192h-192v192zM1248 1472v-96h-192v96h-672v-96h-192v96h-192v-1536h1440v1536h-192zM1344 32h-1248v1056h1248v-1056z" />
    <glyph glyph-name="uniE001" unicode="&#xe001;" 
d="M576 608h-480c-26.667 0 -49.334 -9.33301 -68.001 -28s-28 -41.334 -28 -68.001v-480c0 -26.667 9.33301 -49.334 28 -68.001s41.334 -28 68.001 -28h480c26.667 0 49.334 9.33301 68.001 28s28 41.334 28 68.001v480c0 26.667 -9.33301 49.334 -28 68.001
s-41.334 28 -68.001 28zM480 128h-288v288h288v-288zM576 1472h-480c-26.667 0 -49.334 -9.33301 -68.001 -28s-28 -41.334 -28 -68.001v-480c0 -26.667 9.33301 -49.334 28 -68.001s41.334 -28 68.001 -28h480c26.667 0 49.334 9.33301 68.001 28s28 41.334 28 68.001v480
c0 26.667 -9.33301 49.334 -28 68.001s-41.334 28 -68.001 28zM480 992h-288v288h288v-288zM1440 608h-480c-26.667 0 -49.334 -9.33301 -68.001 -28s-28 -41.334 -28 -68.001v-480c0 -26.667 9.33301 -49.334 28 -68.001s41.334 -28 68.001 -28h480
c26.667 0 49.334 9.33301 68.001 28s28 41.334 28 68.001v480c0 26.667 -9.33301 49.334 -28 68.001s-41.334 28 -68.001 28zM1344 128h-288v288h288v-288zM1440 1472h-480c-26.667 0 -49.334 -9.33301 -68.001 -28s-28 -41.334 -28 -68.001v-480
c0 -26.667 9.33301 -49.334 28 -68.001s41.334 -28 68.001 -28h480c26.667 0 49.334 9.33301 68.001 28s28 41.334 28 68.001v480c0 26.667 -9.33301 49.334 -28 68.001s-41.334 28 -68.001 28zM1344 992h-288v288h288v-288z" />
    <glyph glyph-name="uniE002" unicode="&#xe002;" 
d="M1440 -64h-1344c-26.667 0 -49.334 9.33301 -68.001 28s-28 41.334 -28 68.001v1344c0 26.667 9.33301 49.334 28 68.001s41.334 28 68.001 28h1344c26.667 0 49.334 -9.33301 68.001 -28s28 -41.334 28 -68.001v-1344c0 -26.667 -9.33301 -49.334 -28 -68.001
s-41.334 -28 -68.001 -28zM1344 1280h-1152v-1152h1152v1152zM672 800h-288v288h288v-288zM672 320h-288v288h288v-288zM1152 800h-288v288h288v-288zM1152 320h-288v288h288v-288z" />
    <glyph glyph-name="uniE003" unicode="&#xe003;" 
d="M1440 1472h-768c-26.667 0 -49.334 -9.33301 -68.001 -28s-28 -41.334 -28 -68.001v-768c0 -26.667 9.33301 -49.334 28 -68.001s41.334 -28 68.001 -28h768c26.667 0 49.334 9.33301 68.001 28s28 41.334 28 68.001v768c0 26.667 -9.33301 49.334 -28 68.001
s-41.334 28 -68.001 28zM1344 704h-576v576h576v-576zM768 128l-576.001 0.000976562v576h192v192h-288c-26.667 0 -49.334 -9.33301 -68.001 -28s-28 -41.334 -28 -68.001v-768c0 -26.667 9.33301 -49.334 28 -68.001s41.334 -28 68.001 -28h768
c26.667 0 49.334 9.33301 68.001 28s28 41.334 28 68.001v288h-192v-192z" />
    <glyph glyph-name="uniE004" unicode="&#xe004;" 
d="M384 1088h192v-192h-192v192zM384 800h192v-192h-192v192zM384 512h192v-192h-192v192zM768 512h384v-192h-384v192zM1440 1472h-1344c-26.667 0 -49.334 -9.33301 -68.001 -28s-28 -41.334 -28 -68.001v-1344c0 -26.667 9.33301 -49.334 28 -68.001
s41.334 -28 68.001 -28h1344c26.667 0 49.334 9.33301 68.001 28s28 41.334 28 68.001v1344c0 26.667 -9.33301 49.334 -28 68.001s-41.334 28 -68.001 28zM1344 128h-1152v1152h1152v-1152zM768 800h384v-192h-384v192zM768 1088h384v-192h-384v192z" />
    <glyph glyph-name="uniE005" unicode="&#xe005;" 
d="M672 1472c-26.667 0 -49.332 -9.33301 -67.999 -28s-28 -41.334 -28 -68.001v-480h-96v480c0 26.667 -9.33301 49.334 -28 68.001s-41.334 28 -68.001 28s-49.334 -9.33301 -68.001 -28s-28 -41.334 -28 -68.001v-480h-96v480c0 26.667 -9.33301 49.334 -28 68.001
s-41.334 28 -68.001 28s-49.334 -9.33301 -68.001 -28s-28 -41.334 -28 -68.001v-576c0 -26.667 9.33301 -49.334 28 -68.001s41.334 -28 68.001 -28h192v-672c0 -26.667 9.33301 -49.334 28 -68.001s41.334 -28 68.001 -28s49.334 9.33301 68.001 28s28 41.334 28 68.001
v672h192c26.667 0 49.334 9.33301 68.001 28s28 41.334 28 68.001v576c0 26.667 -9.33301 49.334 -28 68.001s-41.334 28 -68.001 28zM1248 1472c-79.333 0 -147.172 -28.167 -203.505 -84.5s-84.5 -124.166 -84.5 -203.499c0 -62 17.833 -117.5 53.5 -166.5
s81.834 -83.5 138.501 -103.5v-882c0 -26.667 9.33301 -49.334 28 -68.001s41.334 -28 68.001 -28s49.334 9.33301 68.001 28s28 41.334 28 68.001v882c56.667 20 102.834 54.5 138.501 103.5s53.5 104.5 53.5 166.5c0 79.333 -28.167 147.166 -84.5 203.499
s-124.166 84.5 -203.499 84.5z" />
    <glyph glyph-name="uniE006" unicode="&#xe006;" 
d="M768 1472c139.333 0 267.833 -34.333 385.5 -103s210.834 -161.834 279.501 -279.501s103 -246.167 103 -385.5s-34.333 -267.833 -103 -385.5s-161.834 -210.834 -279.501 -279.501s-246.167 -103 -385.5 -103s-267.833 34.333 -385.5 103
s-210.834 161.834 -279.501 279.501s-103 246.167 -103 385.5s34.333 267.833 103 385.5s161.834 210.834 279.501 279.501s246.167 103 385.5 103zM768 80c84.667 0 165.5 16.5 242.5 49.5s143.333 77.333 199 133s100 122 133 199s49.5 157.833 49.5 242.5
s-16.5 165.5 -49.5 242.5s-77.333 143.333 -133 199s-122 100 -199 133s-157.833 49.5 -242.5 49.5s-165.5 -16.5 -242.5 -49.5s-143.333 -77.333 -199 -133s-100 -122 -133 -199s-49.5 -157.833 -49.5 -242.5s16.5 -165.5 49.5 -242.5s77.333 -143.333 133 -199
s122 -100 199 -133s157.833 -49.5 242.5 -49.5zM960 1088c26.667 0 49.3379 -9.3291 68.0049 -27.9961s28 -41.334 28 -68.001s-9.33301 -49.334 -28 -68.001s-41.334 -28 -68.001 -28h-248l412 -412c18.667 -18.667 28 -41.334 28 -68.001s-9.33301 -49.334 -28 -68.001
s-41.334 -28 -68.001 -28s-49.334 9.33301 -68.001 28l-412 412v-248c0 -26.667 -9.33301 -49.334 -28 -68.001s-41.334 -28 -68.001 -28s-49.334 9.33301 -68.001 28s-28 41.334 -28 68.001v576h576z" />
    <glyph glyph-name="uniE007" unicode="&#xe007;" 
d="M1536 704c0 -139.333 -34.333 -267.833 -103 -385.5s-161.834 -210.834 -279.501 -279.501s-246.167 -103 -385.5 -103s-267.833 34.333 -385.5 103s-210.834 161.834 -279.501 279.501s-103 246.167 -103 385.5s34.333 267.833 103 385.5
s161.834 210.834 279.501 279.501s246.167 103 385.5 103s267.833 -34.333 385.5 -103s210.834 -161.834 279.501 -279.501s103 -246.167 103 -385.5zM144 704c0 -84.667 16.5 -165.5 49.5 -242.5s77.333 -143.333 133 -199s122 -100 199 -133s157.833 -49.5 242.5 -49.5
s165.5 16.5 242.5 49.5s143.333 77.333 199 133s100 122 133 199s49.5 157.833 49.5 242.5s-16.5 165.5 -49.5 242.5s-77.333 143.333 -133 199s-122 100 -199 133s-157.833 49.5 -242.5 49.5s-165.5 -16.5 -242.5 -49.5s-143.333 -77.333 -199 -133s-100 -122 -133 -199
s-49.5 -157.833 -49.5 -242.5zM836 1156l384.004 -384c18.667 -18.667 28 -41.334 28 -68.001s-9.33301 -49.334 -28 -68.001s-41.334 -28 -68.001 -28s-49.334 9.33301 -68.001 28l-220 220v-536c0 -26.667 -9.33301 -49.334 -28 -68.001s-41.334 -28 -68.001 -28
s-49.334 9.33301 -68.001 28s-28 41.334 -28 68.001v536l-220 -220c-18.667 -18.667 -41.334 -28 -68.001 -28s-49.334 9.33301 -68.001 28s-28 41.334 -28 68.001s9.33301 49.334 28 68.001l384 384c18.667 18.667 41.334 28 68.001 28s49.334 -9.33301 68.001 -28z" />
    <glyph glyph-name="uniE008" unicode="&#xe008;" 
d="M768 1472c-139.333 0 -267.833 -34.333 -385.5 -103s-210.834 -161.834 -279.501 -279.501s-103 -246.167 -103 -385.5s34.333 -267.833 103 -385.5s161.834 -210.834 279.501 -279.501s246.167 -103 385.5 -103s267.833 34.333 385.5 103
s210.834 161.834 279.501 279.501s103 246.167 103 385.5s-34.333 267.833 -103 385.5s-161.834 210.834 -279.501 279.501s-246.167 103 -385.5 103zM768 80c-84.667 0 -165.5 16.5 -242.5 49.5s-143.333 77.333 -199 133s-100 122 -133 199s-49.5 157.833 -49.5 242.5
s16.5 165.5 49.5 242.5s77.333 143.333 133 199s122 100 199 133s157.833 49.5 242.5 49.5s165.5 -16.5 242.5 -49.5s143.333 -77.333 199 -133s100 -122 133 -199s49.5 -157.833 49.5 -242.5s-16.5 -165.5 -49.5 -242.5s-77.333 -143.333 -133 -199s-122 -100 -199 -133
s-157.833 -49.5 -242.5 -49.5zM576 1088c-26.667 0 -49.3379 -9.3291 -68.0049 -27.9961s-28 -41.334 -28 -68.001s9.33301 -49.334 28 -68.001s41.334 -28 68.001 -28h248l-412 -412c-18.667 -18.667 -28 -41.334 -28 -68.001s9.33301 -49.334 28 -68.001
s41.334 -28 68.001 -28s49.334 9.33301 68.001 28l412 412v-248c0 -26.667 9.33301 -49.334 28 -68.001s41.334 -28 68.001 -28s49.334 9.33301 68.001 28s28 41.334 28 68.001v576h-576z" />
    <glyph glyph-name="uniE009" unicode="&#xe009;" 
d="M768 -64c139.333 0 267.833 34.333 385.5 103s210.834 161.834 279.501 279.501s103 246.167 103 385.5s-34.333 267.833 -103 385.5s-161.834 210.834 -279.501 279.501s-246.167 103 -385.5 103s-267.833 -34.333 -385.5 -103s-210.834 -161.834 -279.501 -279.501
s-103 -246.167 -103 -385.5s34.333 -267.833 103 -385.5s161.834 -210.834 279.501 -279.501s246.167 -103 385.5 -103zM768 1328c84.667 0 165.5 -16.5 242.5 -49.5s143.333 -77.333 199 -133s100 -122 133 -199s49.5 -157.833 49.5 -242.5s-16.5 -165.5 -49.5 -242.5
s-77.333 -143.333 -133 -199s-122 -100 -199 -133s-157.833 -49.5 -242.5 -49.5s-165.5 16.5 -242.5 49.5s-143.333 77.333 -199 133s-100 122 -133 199s-49.5 157.833 -49.5 242.5s16.5 165.5 49.5 242.5s77.333 143.333 133 199s122 100 199 133s157.833 49.5 242.5 49.5z
M1056 464l-336 240l336 240v-480zM672 464l-336 240l336 240v-480z" />
    <glyph glyph-name="uniE00A" unicode="&#xe00a;" 
d="M768 1472c-139.333 0 -267.833 -34.333 -385.5 -103s-210.834 -161.834 -279.501 -279.501s-103 -246.167 -103 -385.5s34.333 -267.833 103 -385.5s161.834 -210.834 279.501 -279.501s246.167 -103 385.5 -103s267.833 34.333 385.5 103
s210.834 161.834 279.501 279.501s103 246.167 103 385.5s-34.333 267.833 -103 385.5s-161.834 210.834 -279.501 279.501s-246.167 103 -385.5 103zM768 80c-84.667 0 -165.5 16.5 -242.5 49.5s-143.333 77.333 -199 133s-100 122 -133 199s-49.5 157.833 -49.5 242.5
s16.5 165.5 49.5 242.5s77.333 143.333 133 199s122 100 199 133s157.833 49.5 242.5 49.5s165.5 -16.5 242.5 -49.5s143.333 -77.333 199 -133s100 -122 133 -199s49.5 -157.833 49.5 -242.5s-16.5 -165.5 -49.5 -242.5s-77.333 -143.333 -133 -199s-122 -100 -199 -133
s-157.833 -49.5 -242.5 -49.5zM480 944l336 -240l-336 -240v480zM864 944l336 -240l-336 -240v480z" />
    <glyph glyph-name="uniE00B" unicode="&#xe00b;" 
d="M288 1280l960 -576l-960 -576v1152z" />
    <glyph glyph-name="uniE00C" unicode="&#xe00c;" 
d="M192 1280h480v-1152h-480v1152zM864 1280h480v-1152h-480v1152z" />
    <glyph glyph-name="uniE00D" unicode="&#xe00d;" 
d="M192 1280h1152v-1152h-1152v1152z" />
    <glyph glyph-name="uniE00E" unicode="&#xe00e;" 
d="M768 1472c-139.333 0 -267.833 -34.333 -385.5 -103s-210.834 -161.834 -279.501 -279.501s-103 -246.167 -103 -385.5s34.333 -267.833 103 -385.5s161.834 -210.834 279.501 -279.501s246.167 -103 385.5 -103s267.833 34.333 385.5 103
s210.834 161.834 279.501 279.501s103 246.167 103 385.5s-34.333 267.833 -103 385.5s-161.834 210.834 -279.501 279.501s-246.167 103 -385.5 103zM768 80c-84.667 0 -165.5 16.5 -242.5 49.5s-143.333 77.333 -199 133s-100 122 -133 199s-49.5 157.833 -49.5 242.5
s16.5 165.5 49.5 242.5s77.333 143.333 133 199s122 100 199 133s157.833 49.5 242.5 49.5s165.5 -16.5 242.5 -49.5s143.333 -77.333 199 -133s100 -122 133 -199s49.5 -157.833 49.5 -242.5s-16.5 -165.5 -49.5 -242.5s-77.333 -143.333 -133 -199s-122 -100 -199 -133
s-157.833 -49.5 -242.5 -49.5zM576 1040l576 -336l-576 -336v672z" />
    <glyph glyph-name="uniE00F" unicode="&#xe00f;" 
d="M768 1472c-139.333 0 -267.833 -34.333 -385.5 -103s-210.834 -161.834 -279.501 -279.501s-103 -246.167 -103 -385.5s34.333 -267.833 103 -385.5s161.834 -210.834 279.501 -279.501s246.167 -103 385.5 -103s267.833 34.333 385.5 103
s210.834 161.834 279.501 279.501s103 246.167 103 385.5s-34.333 267.833 -103 385.5s-161.834 210.834 -279.501 279.501s-246.167 103 -385.5 103zM768 80c-84.667 0 -165.5 16.5 -242.5 49.5s-143.333 77.333 -199 133s-100 122 -133 199s-49.5 157.833 -49.5 242.5
s16.5 165.5 49.5 242.5s77.333 143.333 133 199s122 100 199 133s157.833 49.5 242.5 49.5s165.5 -16.5 242.5 -49.5s143.333 -77.333 199 -133s100 -122 133 -199s49.5 -157.833 49.5 -242.5s-16.5 -165.5 -49.5 -242.5s-77.333 -143.333 -133 -199s-122 -100 -199 -133
s-157.833 -49.5 -242.5 -49.5zM480 992h192v-576h-192v576zM864 992h192v-576h-192v576z" />
    <glyph glyph-name="uniE010" unicode="&#xe010;" 
d="M768 1472c-139.333 0 -267.833 -34.333 -385.5 -103s-210.834 -161.834 -279.501 -279.501s-103 -246.167 -103 -385.5s34.333 -267.833 103 -385.5s161.834 -210.834 279.501 -279.501s246.167 -103 385.5 -103s267.833 34.333 385.5 103
s210.834 161.834 279.501 279.501s103 246.167 103 385.5s-34.333 267.833 -103 385.5s-161.834 210.834 -279.501 279.501s-246.167 103 -385.5 103zM768 80c-84.667 0 -165.5 16.5 -242.5 49.5s-143.333 77.333 -199 133s-100 122 -133 199s-49.5 157.833 -49.5 242.5
s16.5 165.5 49.5 242.5s77.333 143.333 133 199s122 100 199 133s157.833 49.5 242.5 49.5s165.5 -16.5 242.5 -49.5s143.333 -77.333 199 -133s100 -122 133 -199s49.5 -157.833 49.5 -242.5s-16.5 -165.5 -49.5 -242.5s-77.333 -143.333 -133 -199s-122 -100 -199 -133
s-157.833 -49.5 -242.5 -49.5zM480 992h576v-576h-576v576z" />
    <glyph glyph-name="uniE011" unicode="&#xe011;" 
d="M864 1232v-480l480 480v-1056l-480 480v-480l-528 528z" />
    <glyph glyph-name="uniE012" unicode="&#xe012;" 
d="M768 176v480l-480 -480v1056l480 -480v480l528 -528z" />
    <glyph glyph-name="uniE013" unicode="&#xe013;" 
d="M192 128v1152h192v-528l480 480v-480l480 480v-1056l-480 480v-480l-480 480v-528h-192z" />
    <glyph glyph-name="uniE014" unicode="&#xe014;" 
d="M1344 1280v-1152h-192v528l-480 -480v480l-480 -480v1056l480 -480v480l480 -480v528h192z" />
    <glyph glyph-name="uniE015" unicode="&#xe015;" 
d="M384 128v1152h192v-528l480 480v-1056l-480 480v-528h-192z" />
    <glyph glyph-name="uniE016" unicode="&#xe016;" 
d="M1152 1280v-1152h-192v528l-480 -480v1056l480 -480v528h192z" />
    <glyph glyph-name="uniE017" unicode="&#xe017;" 
d="M0 320h1536v-192h-1536v192zM768 1280l768 -768h-1536z" />
    <glyph glyph-name="uniE018" unicode="&#xe018;" 
d="M1056 512c-24 -24 -46.6621 -53.6738 -67.9951 -89.0068s-40.166 -61.333 -56.499 -78s-38.833 -25 -67.5 -25c-22.667 0 -45.834 4.83301 -69.501 14.5s-49.167 25.5 -76.5 47.5s-49.833 41.167 -67.5 57.5l-74.5 72.5c-32 32 -56.167 56.833 -72.5 74.5
s-35.5 40.167 -57.5 67.5s-37.833 52.833 -47.5 76.5s-14.5 46.834 -14.5 69.501c0 28.667 8.33301 51.167 25 67.5s42.667 35.166 78 56.499s65 44 89 68c17.333 20.667 22.666 46.334 15.999 77.001s-22.834 63.834 -48.501 99.501s-54 69 -85 100s-62.5 56.667 -94.5 77
s-57.333 30.5 -76 30.5c-18 0 -40.167 -9.83301 -66.5 -29.5s-51.833 -43.667 -76.5 -72s-48.167 -56.666 -70.5 -84.999s-40.5 -52.166 -54.5 -71.499l-20 -30c0 -95.333 40.5 -223.666 121.5 -384.999s168.5 -289 262.5 -383s221.667 -181.5 383 -262.5
s289.666 -121.5 384.999 -121.5l31.5 21.5c13 9 36 26.167 69 51.5s62.167 49.5 87.5 72.5s48.333 48 69 75s31 49.5 31 67.5c0 18.667 -10.167 44 -30.5 76s-46 63.5 -77 94.5s-64.333 59.333 -100 85s-68.834 41.834 -99.501 48.501s-56.334 1.33398 -77.001 -15.999z" />
    <glyph glyph-name="uniE019" unicode="&#xe019;" 
d="M1526 608c18 -125.333 12.3311 -205.666 -17.002 -240.999c-12 -14 -35.5 -25.333 -70.5 -34s-73.833 -13 -116.5 -13s-84.167 3.5 -124.5 10.5s-74 20 -101 39s-40.5 42.167 -40.5 69.5c0 15.333 3 32.166 9 50.499s11.333 33.833 16 46.5s5.66699 27.667 3 45
s-11 34.333 -25 51c-12 13.333 -26.5 24.666 -43.5 33.999s-33.5 16.5 -49.5 21.5s-36.667 8.66699 -62 11s-46.666 3.83301 -63.999 4.5s-41.333 1 -72 1s-54.667 -0.333008 -72 -1s-38.666 -2.16699 -63.999 -4.5s-46 -6 -62 -11s-32.5 -12.167 -49.5 -21.5
s-31.5 -20.666 -43.5 -33.999c-14 -16.667 -22.333 -33.667 -25 -51s-1.66699 -32.333 3 -45s10 -28.167 16 -46.5s9 -35.166 9 -50.499c0 -27.333 -13.5 -50.5 -40.5 -69.5s-60.667 -32 -101 -39s-81.833 -10.5 -124.5 -10.5s-81.5 4.33301 -116.5 13s-58.5 20 -70.5 34
c-29.333 35.333 -35 115.666 -17 240.999c10.667 66 46.334 130 107.001 192c30.667 28.667 63.5 53.5 98.5 74.5s77.833 40.833 128.5 59.5s111.167 32.834 181.5 42.501s149.166 14.834 236.499 15.501h3.5h3h2.5h3c87.333 -0.666992 166.166 -5.83398 236.499 -15.501
s130.833 -23.834 181.5 -42.501s93.5 -38.5 128.5 -59.5s67.833 -45.833 98.5 -74.5c60.667 -62 96.334 -126 107.001 -192z" />
    <glyph glyph-name="uniE01A" unicode="&#xe01a;" 
d="M1348 1376h-1156v-192h-140c-14 0 -26.167 -4.33301 -36.5 -13s-15.5 -19.334 -15.5 -32.001v-96c-0 -13.333 5.33301 -25.166 16 -35.499s22.667 -15.5 36 -15.5h140v-96h-140c-14 0 -26.167 -4.33301 -36.5 -13s-15.5 -19.334 -15.5 -32.001v-96
c-0 -13.333 5.33301 -25.166 16 -35.499s22.667 -15.5 36 -15.5h140v-96h-140c-14 0 -26.167 -4.33301 -36.5 -13s-15.5 -19.334 -15.5 -32.001v-96c-0 -13.333 5.33301 -25.166 16 -35.499s22.667 -15.5 36 -15.5h140v-96h-140c-14 0 -26.167 -4.33301 -36.5 -13
s-15.5 -19.334 -15.5 -32.001v-96c-0 -13.333 5.33301 -25.166 16 -35.499s22.667 -15.5 36 -15.5h140v-192h1156c26 0 47.833 9.66699 65.5 29s26.5 42.666 26.5 69.999v1248c0 26.667 -8.83301 48.834 -26.5 66.501s-39.5 26.5 -65.5 26.5zM480 32l-192 0.00390625v96h52
c12.667 0 23.167 5 31.5 15s12.5 22 12.5 36v96c0 13.333 -4.16699 24.166 -12.5 32.499s-18.833 12.5 -31.5 12.5h-52v96h52c12.667 0 23.167 5 31.5 15s12.5 22 12.5 36v96c0 13.333 -4.16699 24.166 -12.5 32.499s-18.833 12.5 -31.5 12.5h-52v96h52
c12.667 0 23.167 5 31.5 15s12.5 22 12.5 36v96c0 13.333 -4.16699 24.166 -12.5 32.499s-18.833 12.5 -31.5 12.5h-52v96h52c12.667 0 23.167 5 31.5 15s12.5 22 12.5 36v96c0 13.333 -4.16699 24.166 -12.5 32.499s-18.833 12.5 -31.5 12.5h-52v96h192v-1248z" />
    <glyph glyph-name="uniE01B" unicode="&#xe01b;" 
d="M988 348l-316 316v424h192v-344l260 -260zM768 1472c-139.333 0 -267.833 -34.333 -385.5 -103s-210.834 -161.834 -279.501 -279.501s-103 -246.167 -103 -385.5s34.333 -267.833 103 -385.5s161.834 -210.834 279.501 -279.501s246.167 -103 385.5 -103
s267.833 34.333 385.5 103s210.834 161.834 279.501 279.501s103 246.167 103 385.5s-34.333 267.833 -103 385.5s-161.834 210.834 -279.501 279.501s-246.167 103 -385.5 103zM768 128c-104 0 -200.333 25.667 -289 77s-158.667 121.333 -210 210s-77 185 -77 289
s25.667 200.333 77 289s121.333 158.667 210 210s185 77 289 77s200.333 -25.667 289 -77s158.667 -121.333 210 -210s77 -185 77 -289s-25.667 -200.333 -77 -289s-121.333 -158.667 -210 -210s-185 -77 -289 -77z" />
    <glyph glyph-name="uniE01C" unicode="&#xe01c;" 
d="M768 1280c-122 0 -234.5 -30 -337.5 -90s-184.5 -141.5 -244.5 -244.5s-90 -215.5 -90 -337.5s30 -234.5 90 -337.5s141.5 -184.5 244.5 -244.5s215.5 -90 337.5 -90s234.5 30 337.5 90s184.5 141.5 244.5 244.5s90 215.5 90 337.5s-30 234.5 -90 337.5
s-141.5 184.5 -244.5 244.5s-215.5 90 -337.5 90zM768 68c-98 0 -188.333 24.167 -271 72.5s-148.167 113.833 -196.5 196.5s-72.5 173 -72.5 271s24.167 188.333 72.5 271s113.833 148.167 196.5 196.5s173 72.5 271 72.5s188.333 -24.167 271 -72.5
s148.167 -113.833 196.5 -196.5s72.5 -173 72.5 -271s-24.167 -188.333 -72.5 -271s-113.833 -148.167 -196.5 -196.5s-173 -72.5 -271 -72.5zM1402 1041c25.333 44 37.999 91.668 37.999 143.001c0 79.333 -28.167 147.166 -84.5 203.499s-124.166 84.5 -203.499 84.5
c-45.333 0 -88 -10 -128 -30s-73.333 -47.333 -100 -82c98 -20 188.333 -57.833 271 -113.5s151.667 -124.167 207 -205.5zM611.999 1360c-26.667 34.667 -60.001 61.999 -100.001 81.999s-82.667 30 -128 30c-79.333 0 -147.166 -28.167 -203.499 -84.5
s-84.5 -124.166 -84.5 -203.499c0 -51.333 12.667 -99 38 -143c55.333 81.333 124.333 149.833 207 205.5s173 93.5 271 113.5zM671.998 992h96v-480h-96v480zM767.998 608h288v-96h-288v96z" />
    <glyph glyph-name="uniE01D" unicode="&#xe01d;" 
d="M864 648l164 -164l-136 -136l-220 220v328h192v-248zM1248 1376c79.333 0 147.167 -28.168 203.5 -84.501s84.5 -124.166 84.5 -203.499c0 -48 -11 -92.667 -33 -134s-52 -75.333 -90 -102c-34.667 92.667 -87 174 -157 244s-151.333 122.333 -244 157
c26.667 38 60.667 68 102 90s86 33 134 33zM524.001 1253c-92.667 -34.667 -173.999 -86.999 -243.999 -156.999s-122.333 -151.333 -157 -244c-38 26.667 -68 60.667 -90 102s-33 86 -33 134c0 79.333 28.167 147.166 84.5 203.499s124.166 84.5 203.499 84.5
c48 0 92.667 -11 134 -33s75.333 -52 102 -90zM768.002 1184c-104 0 -200.333 -25.667 -289 -77s-158.667 -121.333 -210 -210s-77 -185 -77 -289c0 -138 43.667 -260 131 -366l-35 -306h96l96 173c88.667 -51.333 184.667 -77 288 -77s199.333 25.667 288 77l96 -173h96
l-35 306c87.333 106 131 228 131 366c0 104 -25.667 200.333 -77 289s-121.333 158.667 -210 210s-185 77 -289 77zM768.002 224c-106 0 -196.5 37.5 -271.5 112.5s-112.5 165.5 -112.5 271.5s37.5 196.5 112.5 271.5s165.5 112.5 271.5 112.5s196.5 -37.5 271.5 -112.5
s112.5 -165.5 112.5 -271.5s-37.5 -196.5 -112.5 -271.5s-165.5 -112.5 -271.5 -112.5z" />
    <glyph glyph-name="uniE01E" unicode="&#xe01e;" 
d="M768 1472c-139.333 0 -267.833 -34.333 -385.5 -103s-210.834 -161.834 -279.501 -279.501s-103 -246.167 -103 -385.5s34.333 -267.833 103 -385.5s161.834 -210.834 279.501 -279.501s246.167 -103 385.5 -103s267.833 34.333 385.5 103
s210.834 161.834 279.501 279.501s103 246.167 103 385.5s-34.333 267.833 -103 385.5s-161.834 210.834 -279.501 279.501s-246.167 103 -385.5 103zM988 348l-316 316v424h192v-344l260 -260z" />
    <glyph glyph-name="uniE01F" unicode="&#xe01f;" 
d="M768 1182l0.00195312 98h192v96c0 26.667 -9.33301 49.334 -28 68.001s-41.334 28 -68.001 28h-288c-26.667 0 -49.334 -9.33301 -68.001 -28s-28 -41.334 -28 -68.001v-96h192v-98c-79.333 -6 -154.5 -26.5 -225.5 -61.5s-132.167 -80 -183.5 -135
s-92 -119.5 -122 -193.5s-45 -151.333 -45 -232c0 -84.667 16.5 -165.5 49.5 -242.5s77.333 -143.333 133 -199s122 -100 199 -133s157.833 -49.5 242.5 -49.5s165.5 16.5 242.5 49.5s143.333 77.333 199 133s100 122 133 199s49.5 157.833 49.5 242.5
c0 80.667 -15 158 -45 232s-70.667 138.5 -122 193.5s-112.5 100 -183.5 135s-146.167 55.5 -225.5 61.5zM1059 221c-45.333 -45.333 -97.168 -80.166 -155.501 -104.499s-119.5 -36.5 -183.5 -36.5s-125.167 12.167 -183.5 36.5s-110.166 59.166 -155.499 104.499
s-80.166 97.166 -104.499 155.499s-36.5 119.5 -36.5 183.5s12.167 125.167 36.5 183.5s59.166 110.166 104.499 155.499c43.333 44 92.833 78 148.5 102s114.167 37 175.5 39l-33 -471c-1.33301 -19.333 2.5 -33.666 11.5 -42.999s21.167 -14 36.5 -14
s27.5 4.66699 36.5 14s12.833 23.666 11.5 42.999l-33 471c61.333 -2 119.833 -15 175.5 -39s105.167 -58 148.5 -102c45.333 -45.333 80.166 -97.166 104.499 -155.499s36.5 -119.5 36.5 -183.5s-12.167 -125.167 -36.5 -183.5s-59.166 -110.166 -104.499 -155.499z" />
    <glyph glyph-name="uniE020" unicode="&#xe020;" 
d="M768 608l384 384h-288v384h-192v-384h-288zM1117 765l-108 -108l391 -145l-632 -236l-632 236l391 145l-108 108l-419 -157v-384l768 -288l768 288v384z" />
    <glyph glyph-name="uniE021" unicode="&#xe021;" 
d="M672 608h192v384h288l-384 384l-384 -384h288v-384zM960 824v-148l440 -164l-632 -236l-632 236l440 164v148l-576 -216v-384l768 -288l768 288v384z" />
    <glyph glyph-name="uniE022" unicode="&#xe022;" 
d="M1472 1040c-136 19.333 -276.999 33 -422.999 41l247 247l-96 96l-337 -337c-31.333 0.666992 -63 1 -95 1l-384 384l-96 -96l291 -291c-178.667 -6.66699 -350.334 -21.667 -515.001 -45c-42.667 -167.333 -64 -343.333 -64 -528s21.333 -360.667 64 -528
c223.333 -32 458 -48 704 -48s480.667 16 704 48c42.667 167.333 64 343.333 64 528s-21.333 360.667 -64 528zM1296 160c-167.333 -21.333 -343.333 -32 -528 -32s-360.667 10.667 -528 32c-32 112 -48 229.333 -48 352s16 240 48 352c167.333 21.333 343.333 32 528 32
s360.667 -10.667 528 -32c32 -112 48 -229.333 48 -352s-16 -240 -48 -352z" />
    <glyph glyph-name="uniE023" unicode="&#xe023;" 
d="M1200 1472h-960c-39.333 0 -73.166 -14.167 -101.499 -42.5s-42.5 -62.166 -42.5 -101.499v-1248c0 -39.333 14.167 -73.166 42.5 -101.499s62.166 -42.5 101.499 -42.5h960c39.333 0 73.166 14.167 101.499 42.5s42.5 62.166 42.5 101.499v1248
c0 39.333 -14.167 73.166 -42.5 101.499s-62.166 42.5 -101.499 42.5zM720 -16c-13.333 0 -24.666 4.66699 -33.999 14s-14 20.666 -14 33.999s4.66699 24.666 14 33.999s20.666 14 33.999 14s24.666 -4.66699 33.999 -14s14 -20.666 14 -33.999
s-4.66699 -24.666 -14 -33.999s-20.666 -14 -33.999 -14zM1152 128h-864v1152h864v-1152z" />
    <glyph glyph-name="uniE024" unicode="&#xe024;" 
d="M576 1280c0 -52.667 18.833 -97.834 56.5 -135.501s82.834 -56.5 135.501 -56.5s97.834 18.833 135.501 56.5s56.5 82.834 56.5 135.501s-18.833 97.834 -56.5 135.501s-82.834 56.5 -135.501 56.5s-97.834 -18.833 -135.501 -56.5s-56.5 -82.834 -56.5 -135.501z
M983 1111.5c0 -53 18.833 -98.333 56.5 -136s83 -56.5 136 -56.5s98.167 18.833 135.5 56.5s56 83 56 136s-18.667 98.167 -56 135.5s-82.5 56 -135.5 56s-98.333 -18.667 -136 -56s-56.5 -82.5 -56.5 -135.5zM1248 704c0 -26.667 9.33301 -49.334 28 -68.001
s41.334 -28 68.001 -28s49.334 9.33301 68.001 28s28 41.334 28 68.001s-9.33301 49.334 -28 68.001s-41.334 28 -68.001 28s-49.334 -9.33301 -68.001 -28s-28 -41.334 -28 -68.001zM1079 296.5c0 -26.333 9.5 -48.834 28.5 -67.501s41.667 -28 68 -28
s48.833 9.33301 67.5 28s28 41.334 28 68.001v0c0 26 -9.33301 48.5 -28 67.5s-41.167 28.5 -67.5 28.5s-49 -9.5 -68 -28.5s-28.5 -41.667 -28.5 -68zM672 127.999c0 -26.667 9.33301 -49.334 28 -68.001s41.334 -28 68.001 -28s49.334 9.33301 68.001 28
s28 41.334 28 68.001s-9.33301 49.334 -28 68.001s-41.334 28 -68.001 28s-49.334 -9.33301 -68.001 -28s-28 -41.334 -28 -68.001zM265 296.499c0 -26.333 9.33301 -48.834 28 -67.501s41.167 -28 67.5 -28s49 9.33301 68 28s28.5 41.334 28.5 68.001v0
c0 26 -9.5 48.5 -28.5 67.5s-41.667 28.5 -68 28.5s-48.833 -9.5 -67.5 -28.5s-28 -41.667 -28 -68zM217 1111.5c0 -39.667 14 -73.667 42 -102s61.833 -42.5 101.5 -42.5s73.667 14.167 102 42.5s42.5 62.333 42.5 102s-14.167 73.5 -42.5 101.5s-62.333 42 -102 42
s-73.5 -14 -101.5 -42s-42 -61.833 -42 -101.5zM84 703.998c0 -30 10.5 -55.5 31.5 -76.5s46.5 -31.5 76.5 -31.5s55.5 10.5 76.5 31.5s31.5 46.5 31.5 76.5s-10.5 55.5 -31.5 76.5s-46.5 31.5 -76.5 31.5s-55.5 -10.5 -76.5 -31.5s-31.5 -46.5 -31.5 -76.5z" />
    <glyph glyph-name="uniE025" unicode="&#xe025;" 
d="M1464 -64h-1008c-20 0 -37 7 -51 21s-21 31 -21 51c0 51.333 10.333 106.666 31 165.999s49.334 115.333 86.001 168c61.333 90 133.666 155 216.999 195c-36.667 32.667 -67 71.667 -91 117c-40 74 -60 154.667 -60 242c0 60 9.5 117.333 28.5 172
s46.5 103.334 82.5 146.001c37.333 44.667 80.166 78.834 128.499 102.501s99.5 35.5 153.5 35.5s105.167 -11.833 153.5 -35.5s91.166 -57.834 128.499 -102.501c36 -42.667 63.5 -91.334 82.5 -146.001s28.5 -112 28.5 -172c0 -87.333 -20 -168 -60 -242
c-24 -45.333 -54.333 -84.333 -91 -117c83.333 -40 155.666 -105 216.999 -195c36.667 -52.667 65.334 -108.667 86.001 -168s31 -114.666 31 -165.999c0 -20 -7 -37 -21 -51s-31 -21 -51 -21zM537.002 80h846.002c-14.667 62 -42 122.333 -82 181
c-31.333 45.333 -65.833 82.166 -103.5 110.499s-76.167 46.833 -115.5 55.5c-16.667 4 -30.334 12.5 -41.001 25.5s-16 28.167 -16 45.5v51c0 28 12.333 49 37 63c44.667 25.333 80.334 63.666 107.001 114.999s40 107.666 40 168.999c0 86 -24.333 159.5 -73 220.5
s-107.334 91.5 -176.001 91.5s-127.334 -30.5 -176.001 -91.5s-73 -134.5 -73 -220.5c0 -61.333 13.333 -117.666 40 -168.999s62.334 -89.666 107.001 -114.999c24.667 -14 37 -35 37 -63v-51c0 -17.333 -5.33301 -32.5 -16 -45.5s-24.334 -21.5 -41.001 -25.5
c-39.333 -8.66699 -77.833 -27.167 -115.5 -55.5s-72.167 -65.166 -103.5 -110.499c-40 -58.667 -67.333 -119 -82 -181zM296.004 176l-142.999 0.00390625c14.667 62 42 122.333 82 181c31.333 45.333 65.833 82.166 103.5 110.499s76.167 46.833 115.5 55.5
c16.667 4 30.334 12.5 41.001 25.5s16 28.167 16 45.5v51c0 28 -12.333 49 -37 63c-44.667 25.333 -80.334 63.666 -107.001 114.999s-40 107.666 -40 168.999c0 86 24.333 159.5 73 220.5s107.334 91.5 176.001 91.5c9.33301 0 18.666 -0.666992 27.999 -2
c39.333 44 83.666 79.667 132.999 107c-50.667 26 -104.334 39 -161.001 39c-54 0 -105.167 -11.833 -153.5 -35.5s-91.166 -57.834 -128.499 -102.501c-36 -42.667 -63.5 -91.334 -82.5 -146.001s-28.5 -112 -28.5 -172c0 -87.333 20 -168 60 -242
c24 -45.333 54.333 -84.333 91 -117c-83.333 -40 -155.666 -105 -216.999 -195c-36.667 -52.667 -65.334 -108.667 -86.001 -168s-31 -114.666 -31 -165.999c0 -20 7 -37 21 -51s31 -21 51 -21h199c2 46.667 10.333 94.667 25 144z" />
    <glyph glyph-name="uniE026" unicode="&#xe026;" 
d="M1536 1472v-576l-207 207l-318 -318l-162 162l318 318l-207 207h576zM369 1265l318 -318l-162 -162l-318 318l-207 -207v576h576zM1329 305l207 207v-576h-576l207 207l-318 318l162 162zM687 461l-318 -318l207 -207h-576v576l207 -207l318 318z" />
    <glyph glyph-name="uniE027" unicode="&#xe027;" 
d="M96 608h576v-576l-207 207l-303 -303l-162 162l303 303zM1233 401l303 -303l-162 -162l-303 303l-207 -207v576h576zM1440 800h-576v576l207 -207l303 303l162 -162l-303 -303zM465 1169l207 207v-576h-576l207 207l-303 303l162 162z" />
    <glyph glyph-name="uniE028" unicode="&#xe028;" 
d="M1344 1088h-287.998v192c0 26.667 -9.33301 49.334 -28 68.001s-41.334 28 -68.001 28h-384c-26.667 0 -49.334 -9.33301 -68.001 -28s-28 -41.334 -28 -68.001v-192h-288c-52.667 0 -97.834 -18.833 -135.501 -56.5s-56.5 -82.834 -56.5 -135.501v-768
c0 -52.667 18.833 -97.834 56.5 -135.501s82.834 -56.5 135.501 -56.5h1152c52.667 0 97.834 18.833 135.501 56.5s56.5 82.834 56.5 135.501v768c0 52.667 -18.833 97.834 -56.5 135.501s-82.834 56.5 -135.501 56.5zM576.002 1280h384v-192h-384v192zM1152 416h-288v-288
h-192v288h-288v192h288v288h192v-288h288v-192z" />
    <glyph glyph-name="uniE029" unicode="&#xe029;" 
d="M1536 560l-0.00390625 288l-220 37c-9.33301 26.667 -20.333 53 -33 79l130 181l-204 204l-181 -129c-25.333 12.667 -51.666 23.334 -78.999 32.001l-37 220h-288l-37 -220c-27.333 -8.66699 -53.666 -19.334 -78.999 -32.001l-181 129l-204 -204l130 -181
c-12.667 -26 -23.667 -52.333 -33 -79l-220 -37v-288l221 -37c8.66699 -26.667 19.334 -52.667 32.001 -78l-130 -182l204 -204l182 130c25.333 -12.667 51.333 -23.334 78 -32.001l37 -221h288l37 221c26.667 8.66699 52.667 19.334 78 32.001l182 -130l204 204l-130 182
c12.667 25.333 23.334 51.333 32.001 78zM767.996 512c-53.333 0 -98.666 18.667 -135.999 56s-56 82.666 -56 135.999s18.667 98.666 56 135.999s82.666 56 135.999 56s98.666 -18.667 135.999 -56s56 -82.666 56 -135.999s-18.667 -98.666 -56 -135.999
s-82.666 -56 -135.999 -56z" />
    <glyph glyph-name="uniE02A" unicode="&#xe02a;" 
d="M1344 896l-522.003 0.000976562c4 14.667 10 35.167 18 61.5s13.167 44.333 15.5 54s5.33301 24 9 43s6 37.5 7 55.5s1.5 39.667 1.5 65c0 55.333 -19.667 102.666 -59 141.999s-86.666 59 -141.999 59s-102.666 -19.667 -141.999 -59s-59 -86.666 -59 -141.999
c0 -50.667 -6.83301 -94.667 -20.5 -132s-32.167 -68.833 -55.5 -94.5s-55.666 -53.167 -96.999 -82.5c-2.66699 -2 -6 -4.33301 -10 -7v133h-288v-960h288v86c30 -2.66699 55.333 -7.5 76 -14.5s35.334 -13.833 44.001 -20.5s20 -17.334 34 -32.001l28 -27.5
c7.33301 -7 18.666 -15.667 33.999 -26s31.666 -19.166 48.999 -26.499c56.667 -23.333 136.334 -35 239.001 -35h72h25c46.667 0 86.5 16.833 119.5 50.5s49.5 73.834 49.5 120.501c0 16 -2 31.667 -6 47c30.667 32.667 46 72 46 118c0 16 -2 31.333 -6 46
c30.667 33.333 46 73 46 119c0 26 -5.66699 51 -17 75h223c53.333 0 98.666 18.667 135.999 56s56 82.666 56 135.999s-18.667 98.666 -56 135.999s-82.666 56 -135.999 56zM143.997 128.001c-13.333 0 -24.666 4.66699 -33.999 14s-14 20.666 -14 33.999
s4.66699 24.666 14 33.999s20.666 14 33.999 14s24.666 -4.66699 33.999 -14s14 -20.666 14 -33.999s-4.66699 -24.666 -14 -33.999s-20.666 -14 -33.999 -14zM1335 608.001l-373.999 0.00195312h-10v-96h10c20 0 37 -7.33301 51 -22s21 -32.334 21 -53.001
c0 -28 -11.333 -49.333 -34 -64l-37 -25l22 -39c6 -11.333 9 -23.666 9 -36.999c0 -28 -11.333 -49.333 -34 -64l-37 -24l21 -39c6.66699 -12 10 -24.667 10 -38c0 -20.667 -7.16699 -38.334 -21.5 -53.001s-31.5 -22 -51.5 -22h-25h-72c-20.667 0 -39.834 0.5 -57.501 1.5
s-33.834 3.16699 -48.501 6.5s-27.5 6 -38.5 8s-22 6 -33 12s-19.333 10.167 -25 12.5s-12.834 7.33301 -21.501 15l-16 14c-2 1.66699 -7.16699 6.83398 -15.5 15.501l-13.5 14c-14 14 -25.5 25 -34.5 33s-22.5 17.5 -40.5 28.5s-39.5 19.5 -64.5 25.5
s-53.833 10.333 -86.5 13v502c24 12.667 46.333 26 67 40c50.667 36 91.5 71.833 122.5 107.5s55.167 78 72.5 127s26 104.833 26 167.5c0 23.333 9.33301 43.666 28 60.999s40.334 26 65.001 26c24 0 45 -8.5 63 -25.5s27 -37.5 27 -61.5c0 -25.333 -0.5 -47 -1.5 -65
s-3.66699 -36.667 -8 -56s-7.66602 -33.666 -9.99902 -42.999s-7.83301 -27.333 -16.5 -54s-15 -47 -19 -61c-11.333 -40 -19.333 -71.667 -24 -95l655 -1c26.667 0 49.334 -9.33301 68.001 -28s28 -41.334 28 -68.001s-9.33301 -49.334 -28 -68.001
s-41.334 -28 -68.001 -28z" />
    <glyph glyph-name="uniE02B" unicode="&#xe02b;" 
d="M480 128l-0.000976562 522.003c-14.667 -4 -35.167 -10 -61.5 -18s-44.333 -13.167 -54 -15.5s-24 -5.33301 -43 -9s-37.5 -6 -55.5 -7s-39.667 -1.5 -65 -1.5c-55.333 0 -102.666 19.667 -141.999 59s-59 86.666 -59 141.999s19.667 102.666 59 141.999
s86.666 59 141.999 59c50.667 0 94.667 6.83301 132 20.5s68.833 32.167 94.5 55.5s53.167 55.666 82.5 96.999c2 2.66699 4.33301 6 7 10h-133v288h960v-288h-86c2.66699 -30 7.5 -55.333 14.5 -76s13.833 -35.334 20.5 -44.001s17.334 -20 32.001 -34l27.5 -28
c7 -7.33301 15.667 -18.666 26 -33.999s19.166 -31.666 26.499 -48.999c23.333 -56.667 35 -136.334 35 -239.001v-72v-25c0 -46.667 -16.833 -86.5 -50.5 -119.5s-73.834 -49.5 -120.501 -49.5c-16 0 -31.667 2 -47 6c-32.667 -30.667 -72 -46 -118 -46
c-16 0 -31.333 2 -46 6c-33.333 -30.667 -73 -46 -119 -46c-26 0 -51 5.66699 -75 17v-223c0 -53.333 -18.667 -98.666 -56 -135.999s-82.666 -56 -135.999 -56s-98.666 18.667 -135.999 56s-56 82.666 -56 135.999zM1248 1328c0 13.333 -4.66699 24.666 -14 33.999
s-20.666 14 -33.999 14s-24.666 -4.66699 -33.999 -14s-14 -20.666 -14 -33.999s4.66699 -24.666 14 -33.999s20.666 -14 33.999 -14s24.666 4.66699 33.999 14s14 20.666 14 33.999zM767.999 137.003l-0.00195312 373.999v10h96v-10c0 -20 7.33301 -37 22 -51
s32.334 -21 53.001 -21c28 0 49.333 11.333 64 34l25 37l39 -22c11.333 -6 23.666 -9 36.999 -9c28 0 49.333 11.333 64 34l24 37l39 -21c12 -6.66699 24.667 -10 38 -10c20.667 0 38.334 7.16699 53.001 21.5s22 31.5 22 51.5v25v72c0 20.667 -0.5 39.834 -1.5 57.501
s-3.16699 33.834 -6.5 48.501s-6 27.5 -8 38.5s-6 22 -12 33s-10.167 19.333 -12.5 25s-7.33301 12.834 -15 21.501l-14 16c-1.66699 2 -6.83398 7.16699 -15.501 15.5l-14 13.5c-14 14 -25 25.5 -33 34.5s-17.5 22.5 -28.5 40.5s-19.5 39.5 -25.5 64.5
s-10.333 53.833 -13 86.5h-502c-12.667 -24 -26 -46.333 -40 -67c-36 -50.667 -71.833 -91.5 -107.5 -122.5s-78 -55.167 -127 -72.5s-104.833 -26 -167.5 -26c-23.333 0 -43.666 -9.33301 -60.999 -28s-26 -40.334 -26 -65.001c0 -24 8.5 -45 25.5 -63s37.5 -27 61.5 -27
c25.333 0 47 0.5 65 1.5s36.667 3.66699 56 8s33.666 7.66602 42.999 9.99902s27.333 7.83301 54 16.5s47 15 61 19c40 11.333 71.667 19.333 95 24l1 -655c0 -26.667 9.33301 -49.334 28 -68.001s41.334 -28 68.001 -28s49.334 9.33301 68.001 28s28 41.334 28 68.001z" />
    <glyph glyph-name="uniE02C" unicode="&#xe02c;" 
d="M192 896l522.003 0.000976562c-4 14.667 -10 35.167 -18 61.5s-13.167 44.333 -15.5 54s-5.33301 24 -9 43s-6 37.5 -7 55.5s-1.5 39.667 -1.5 65c0 55.333 19.667 102.666 59 141.999s86.666 59 141.999 59s102.666 -19.667 141.999 -59s59 -86.666 59 -141.999
c0 -50.667 6.83301 -94.667 20.5 -132s32.167 -68.833 55.5 -94.5s55.666 -53.167 96.999 -82.5c2.66699 -2 6 -4.33301 10 -7v133h288v-960h-288v86c-30 -2.66699 -55.333 -7.5 -76 -14.5s-35.334 -13.833 -44.001 -20.5s-20 -17.334 -34 -32.001l-28 -27.5
c-7.33301 -7 -18.666 -15.667 -33.999 -26s-31.666 -19.166 -48.999 -26.499c-56.667 -23.333 -136.334 -35 -239.001 -35h-72h-25c-46.667 0 -86.5 16.833 -119.5 50.5s-49.5 73.834 -49.5 120.501c0 16 2 31.667 6 47c-30.667 32.667 -46 72 -46 118c0 16 2 31.333 6 46
c-30.667 33.333 -46 73 -46 119c0 26 5.66699 51 17 75h-223c-53.333 0 -98.666 18.667 -135.999 56s-56 82.666 -56 135.999s18.667 98.666 56 135.999s82.666 56 135.999 56zM1392 128.001c13.333 0 24.666 4.66699 33.999 14s14 20.666 14 33.999
s-4.66699 24.666 -14 33.999s-20.666 14 -33.999 14s-24.666 -4.66699 -33.999 -14s-14 -20.666 -14 -33.999s4.66699 -24.666 14 -33.999s20.666 -14 33.999 -14zM201.003 608.001l373.999 0.00195312h10v-96h-10c-20 0 -37 -7.33301 -51 -22s-21 -32.334 -21 -53.001
c0 -28 11.333 -49.333 34 -64l37 -25l-22 -39c-6 -11.333 -9 -23.666 -9 -36.999c0 -28 11.333 -49.333 34 -64l37 -24l-21 -39c-6.66699 -12 -10 -24.667 -10 -38c0 -20.667 7.16699 -38.334 21.5 -53.001s31.5 -22 51.5 -22h25h72c20.667 0 39.834 0.5 57.501 1.5
s33.834 3.16699 48.501 6.5s27.5 6 38.5 8s22 6 33 12s19.333 10.167 25 12.5s12.834 7.33301 21.501 15l16 14c2 1.66699 7.16699 6.83398 15.5 15.501l13.5 14c14 14 25.5 25 34.5 33s22.5 17.5 40.5 28.5s39.5 19.5 64.5 25.5s53.833 10.333 86.5 13v502
c-24 12.667 -46.333 26 -67 40c-50.667 36 -91.5 71.833 -122.5 107.5s-55.167 78 -72.5 127s-26 104.833 -26 167.5c0 23.333 -9.33301 43.666 -28 60.999s-40.334 26 -65.001 26c-24 0 -45 -8.5 -63 -25.5s-27 -37.5 -27 -61.5c0 -25.333 0.5 -47 1.5 -65
s3.66699 -36.667 8 -56s7.66602 -33.666 9.99902 -42.999s7.83301 -27.333 16.5 -54s15 -47 19 -61c11.333 -40 19.333 -71.667 24 -95l-655 -1c-26.667 0 -49.334 -9.33301 -68.001 -28s-28 -41.334 -28 -68.001s9.33301 -49.334 28 -68.001s41.334 -28 68.001 -28z" />
    <glyph glyph-name="uniE02D" unicode="&#xe02d;" 
d="M480 1280l-0.000976562 -522.003c-14.667 4 -35.167 10 -61.5 18s-44.333 13.167 -54 15.5s-24 5.33301 -43 9s-37.5 6 -55.5 7s-39.667 1.5 -65 1.5c-55.333 0 -102.666 -19.667 -141.999 -59s-59 -86.666 -59 -141.999s19.667 -102.666 59 -141.999
s86.666 -59 141.999 -59c50.667 0 94.667 -6.83301 132 -20.5s68.833 -32.167 94.5 -55.5s53.167 -55.666 82.5 -96.999c2 -2.66699 4.33301 -6 7 -10h-133v-288h960v288h-86c2.66699 30 7.5 55.333 14.5 76s13.833 35.334 20.5 44.001s17.334 20 32.001 34l27.5 28
c7 7.33301 15.667 18.666 26 33.999s19.166 31.666 26.499 48.999c23.333 56.667 35 136.334 35 239.001v72v25c0 46.667 -16.833 86.5 -50.5 119.5s-73.834 49.5 -120.501 49.5c-16 0 -31.667 -2 -47 -6c-32.667 30.667 -72 46 -118 46c-16 0 -31.333 -2 -46 -6
c-33.333 30.667 -73 46 -119 46c-26 0 -51 -5.66699 -75 -17v223c0 53.333 -18.667 98.666 -56 135.999s-82.666 56 -135.999 56s-98.666 -18.667 -135.999 -56s-56 -82.666 -56 -135.999zM1248 79.9971c0 -13.333 -4.66699 -24.666 -14 -33.999s-20.666 -14 -33.999 -14
s-24.666 4.66699 -33.999 14s-14 20.666 -14 33.999s4.66699 24.666 14 33.999s20.666 14 33.999 14s24.666 -4.66699 33.999 -14s14 -20.666 14 -33.999zM767.999 1271l-0.00195312 -373.999v-10h96v10c0 20 7.33301 37 22 51s32.334 21 53.001 21
c28 0 49.333 -11.333 64 -34l25 -37l39 22c11.333 6 23.666 9 36.999 9c28 0 49.333 -11.333 64 -34l24 -37l39 21c12 6.66699 24.667 10 38 10c20.667 0 38.334 -7.16699 53.001 -21.5s22 -31.5 22 -51.5v-25v-72c0 -20.667 -0.5 -39.834 -1.5 -57.501
s-3.16699 -33.834 -6.5 -48.501s-6 -27.5 -8 -38.5s-6 -22 -12 -33s-10.167 -19.333 -12.5 -25s-7.33301 -12.834 -15 -21.501l-14 -16c-1.66699 -2 -6.83398 -7.16699 -15.501 -15.5l-14 -13.5c-14 -14 -25 -25.5 -33 -34.5s-17.5 -22.5 -28.5 -40.5
s-19.5 -39.5 -25.5 -64.5s-10.333 -53.833 -13 -86.5h-502c-12.667 24 -26 46.333 -40 67c-36 50.667 -71.833 91.5 -107.5 122.5s-78 55.167 -127 72.5s-104.833 26 -167.5 26c-23.333 0 -43.666 9.33301 -60.999 28s-26 40.334 -26 65.001c0 24 8.5 45 25.5 63
s37.5 27 61.5 27c25.333 0 47 -0.5 65 -1.5s36.667 -3.66699 56 -8s33.666 -7.66602 42.999 -9.99902s27.333 -7.83301 54 -16.5s47 -15 61 -19c40 -11.333 71.667 -19.333 95 -24l1 655c0 26.667 9.33301 49.334 28 68.001s41.334 28 68.001 28s49.334 -9.33301 68.001 -28
s28 -41.334 28 -68.001z" />
    <glyph glyph-name="uniE02E" unicode="&#xe02e;" 
d="M1296 1280l-720 -720l-336 336l-240 -240l576 -576l960 960z" />
    <glyph glyph-name="uniE02F" unicode="&#xe02f;" 
d="M1522 238l-466 466l466 466c4.66699 4.66699 8.33398 10.334 11.001 17.001c7.33301 19.333 3.66602 36.333 -11.001 51l-220 220c-14.667 14.667 -31.667 18.334 -51 11.001c-6.66699 -2.66699 -12.334 -6.33398 -17.001 -11.001l-466 -466l-466 466
c-4.66699 4.66699 -10.334 8.33398 -17.001 11.001c-19.333 7.33301 -36.333 3.66602 -51 -11.001l-220 -220c-14.667 -14.667 -18.334 -31.667 -11.001 -51c2.66699 -6.66699 6.33398 -12.334 11.001 -17.001l466 -466l-466 -466
c-4.66699 -4.66699 -8.33398 -10.334 -11.001 -17.001c-7.33301 -19.333 -3.66602 -36.333 11.001 -51l220 -220c14.667 -14.667 31.667 -18.334 51 -11.001c6.66699 2.66699 12.334 6.33398 17.001 11.001l466 466l466 -466
c4.66699 -4.66699 10.334 -8.33398 17.001 -11.001c19.333 -7.33301 36.333 -3.66602 51 11.001l220 220c14.667 14.667 18.334 31.667 11.001 51c-2.66699 6.66699 -6.33398 12.334 -11.001 17.001z" />
    <glyph glyph-name="uniE030" unicode="&#xe030;" 
d="M768 1472c139.333 0 267.833 -34.333 385.5 -103s210.834 -161.834 279.501 -279.501s103 -246.167 103 -385.5s-34.333 -267.833 -103 -385.5s-161.834 -210.834 -279.501 -279.501s-246.167 -103 -385.5 -103s-267.833 34.333 -385.5 103
s-210.834 161.834 -279.501 279.501s-103 246.167 -103 385.5s34.333 267.833 103 385.5s161.834 210.834 279.501 279.501s246.167 103 385.5 103zM768 80c84.667 0 165.5 16.5 242.5 49.5s143.333 77.333 199 133s100 122 133 199s49.5 157.833 49.5 242.5
s-16.5 165.5 -49.5 242.5s-77.333 143.333 -133 199s-122 100 -199 133s-157.833 49.5 -242.5 49.5s-165.5 -16.5 -242.5 -49.5s-143.333 -77.333 -199 -133s-100 -122 -133 -199s-49.5 -157.833 -49.5 -242.5s16.5 -165.5 49.5 -242.5s77.333 -143.333 133 -199
s122 -100 199 -133s157.833 -49.5 242.5 -49.5zM316 772l384 384.004c18.667 18.667 41.334 28 68.001 28s49.334 -9.33301 68.001 -28s28 -41.334 28 -68.001s-9.33301 -49.334 -28 -68.001l-220 -220h536c26.667 0 49.334 -9.33301 68.001 -28s28 -41.334 28 -68.001
s-9.33301 -49.334 -28 -68.001s-41.334 -28 -68.001 -28h-536l220 -220c18.667 -18.667 28 -41.334 28 -68.001s-9.33301 -49.334 -28 -68.001s-41.334 -28 -68.001 -28s-49.334 9.33301 -68.001 28l-384 384c-18.667 18.667 -28 41.334 -28 68.001
s9.33301 49.334 28 68.001z" />
    <glyph glyph-name="uniE031" unicode="&#xe031;" 
d="M768 -64c139.333 0 267.833 34.333 385.5 103s210.834 161.834 279.501 279.501s103 246.167 103 385.5s-34.333 267.833 -103 385.5s-161.834 210.834 -279.501 279.501s-246.167 103 -385.5 103s-267.833 -34.333 -385.5 -103s-210.834 -161.834 -279.501 -279.501
s-103 -246.167 -103 -385.5s34.333 -267.833 103 -385.5s161.834 -210.834 279.501 -279.501s246.167 -103 385.5 -103zM768 1328c84.667 0 165.5 -16.5 242.5 -49.5s143.333 -77.333 199 -133s100 -122 133 -199s49.5 -157.833 49.5 -242.5s-16.5 -165.5 -49.5 -242.5
s-77.333 -143.333 -133 -199s-122 -100 -199 -133s-157.833 -49.5 -242.5 -49.5s-165.5 16.5 -242.5 49.5s-143.333 77.333 -199 133s-100 122 -133 199s-49.5 157.833 -49.5 242.5s16.5 165.5 49.5 242.5s77.333 143.333 133 199s122 100 199 133s157.833 49.5 242.5 49.5z
M960 320c26.667 0 49.3379 9.3291 68.0049 27.9961s28 41.334 28 68.001s-9.33301 49.334 -28 68.001s-41.334 28 -68.001 28h-248l412 412c18.667 18.667 28 41.334 28 68.001s-9.33301 49.334 -28 68.001s-41.334 28 -68.001 28s-49.334 -9.33301 -68.001 -28l-412 -412
v248c0 26.667 -9.33301 49.334 -28 68.001s-41.334 28 -68.001 28s-49.334 -9.33301 -68.001 -28s-28 -41.334 -28 -68.001v-576h576z" />
    <glyph glyph-name="uniE032" unicode="&#xe032;" 
d="M1536 704c0 139.333 -34.333 267.833 -103 385.5s-161.834 210.834 -279.501 279.501s-246.167 103 -385.5 103s-267.833 -34.333 -385.5 -103s-210.834 -161.834 -279.501 -279.501s-103 -246.167 -103 -385.5s34.333 -267.833 103 -385.5
s161.834 -210.834 279.501 -279.501s246.167 -103 385.5 -103s267.833 34.333 385.5 103s210.834 161.834 279.501 279.501s103 246.167 103 385.5zM144 704c0 84.667 16.5 165.5 49.5 242.5s77.333 143.333 133 199s122 100 199 133s157.833 49.5 242.5 49.5
s165.5 -16.5 242.5 -49.5s143.333 -77.333 199 -133s100 -122 133 -199s49.5 -157.833 49.5 -242.5s-16.5 -165.5 -49.5 -242.5s-77.333 -143.333 -133 -199s-122 -100 -199 -133s-157.833 -49.5 -242.5 -49.5s-165.5 16.5 -242.5 49.5s-143.333 77.333 -199 133
s-100 122 -133 199s-49.5 157.833 -49.5 242.5zM836 252l384.004 384c18.667 18.667 28 41.334 28 68.001s-9.33301 49.334 -28 68.001s-41.334 28 -68.001 28s-49.334 -9.33301 -68.001 -28l-220 -220v536c0 26.667 -9.33301 49.334 -28 68.001s-41.334 28 -68.001 28
s-49.334 -9.33301 -68.001 -28s-28 -41.334 -28 -68.001v-536l-220 220c-18.667 18.667 -41.334 28 -68.001 28s-49.334 -9.33301 -68.001 -28s-28 -41.334 -28 -68.001s9.33301 -49.334 28 -68.001l384 -384c18.667 -18.667 41.334 -28 68.001 -28
s49.334 9.33301 68.001 28z" />
    <glyph glyph-name="uniE033" unicode="&#xe033;" 
d="M768 -64c-139.333 0 -267.833 34.333 -385.5 103s-210.834 161.834 -279.501 279.501s-103 246.167 -103 385.5s34.333 267.833 103 385.5s161.834 210.834 279.501 279.501s246.167 103 385.5 103s267.833 -34.333 385.5 -103s210.834 -161.834 279.501 -279.501
s103 -246.167 103 -385.5s-34.333 -267.833 -103 -385.5s-161.834 -210.834 -279.501 -279.501s-246.167 -103 -385.5 -103zM768 1328c-84.667 0 -165.5 -16.5 -242.5 -49.5s-143.333 -77.333 -199 -133s-100 -122 -133 -199s-49.5 -157.833 -49.5 -242.5
s16.5 -165.5 49.5 -242.5s77.333 -143.333 133 -199s122 -100 199 -133s157.833 -49.5 242.5 -49.5s165.5 16.5 242.5 49.5s143.333 77.333 199 133s100 122 133 199s49.5 157.833 49.5 242.5s-16.5 165.5 -49.5 242.5s-77.333 143.333 -133 199s-122 100 -199 133
s-157.833 49.5 -242.5 49.5zM576 320c-26.667 0 -49.3379 9.3291 -68.0049 27.9961s-28 41.334 -28 68.001s9.33301 49.334 28 68.001s41.334 28 68.001 28h248l-412 412c-18.667 18.667 -28 41.334 -28 68.001s9.33301 49.334 28 68.001s41.334 28 68.001 28
s49.334 -9.33301 68.001 -28l412 -412v248c0 26.667 9.33301 49.334 28 68.001s41.334 28 68.001 28s49.334 -9.33301 68.001 -28s28 -41.334 28 -68.001v-576h-576z" />
    <glyph glyph-name="uniE034" unicode="&#xe034;" 
d="M768 1472c-139.333 0 -267.833 -34.333 -385.5 -103s-210.834 -161.834 -279.501 -279.501s-103 -246.167 -103 -385.5s34.333 -267.833 103 -385.5s161.834 -210.834 279.501 -279.501s246.167 -103 385.5 -103s267.833 34.333 385.5 103
s210.834 161.834 279.501 279.501s103 246.167 103 385.5s-34.333 267.833 -103 385.5s-161.834 210.834 -279.501 279.501s-246.167 103 -385.5 103zM768 80c-84.667 0 -165.5 16.5 -242.5 49.5s-143.333 77.333 -199 133s-100 122 -133 199s-49.5 157.833 -49.5 242.5
s16.5 165.5 49.5 242.5s77.333 143.333 133 199s122 100 199 133s157.833 49.5 242.5 49.5s165.5 -16.5 242.5 -49.5s143.333 -77.333 199 -133s100 -122 133 -199s49.5 -157.833 49.5 -242.5s-16.5 -165.5 -49.5 -242.5s-77.333 -143.333 -133 -199s-122 -100 -199 -133
s-157.833 -49.5 -242.5 -49.5zM1220 772l-384 384.004c-18.667 18.667 -41.334 28 -68.001 28s-49.334 -9.33301 -68.001 -28s-28 -41.334 -28 -68.001s9.33301 -49.334 28 -68.001l220 -220h-536c-26.667 0 -49.334 -9.33301 -68.001 -28s-28 -41.334 -28 -68.001
s9.33301 -49.334 28 -68.001s41.334 -28 68.001 -28h536l-220 -220c-18.667 -18.667 -28 -41.334 -28 -68.001s9.33301 -49.334 28 -68.001s41.334 -28 68.001 -28s49.334 9.33301 68.001 28l384 384c18.667 18.667 28 41.334 28 68.001s-9.33301 49.334 -28 68.001z" />
    <glyph glyph-name="uniE035" unicode="&#xe035;" 
d="M768 1472c-139.333 0 -267.833 -34.333 -385.5 -103s-210.834 -161.834 -279.501 -279.501s-103 -246.167 -103 -385.5s34.333 -267.833 103 -385.5s161.834 -210.834 279.501 -279.501s246.167 -103 385.5 -103s267.833 34.333 385.5 103
s210.834 161.834 279.501 279.501s103 246.167 103 385.5s-34.333 267.833 -103 385.5s-161.834 210.834 -279.501 279.501s-246.167 103 -385.5 103zM768 128c-104 0 -200.333 25.667 -289 77s-158.667 121.333 -210 210s-77 185 -77 289s25.667 200.333 77 289
s121.333 158.667 210 210s185 77 289 77s200.333 -25.667 289 -77s158.667 -121.333 210 -210s77 -185 77 -289s-25.667 -200.333 -77 -289s-121.333 -158.667 -210 -210s-185 -77 -289 -77zM480 704c0 -79.333 28.167 -147.166 84.5 -203.499s124.166 -84.5 203.499 -84.5
s147.166 28.167 203.499 84.5s84.5 124.166 84.5 203.499s-28.167 147.166 -84.5 203.499s-124.166 84.5 -203.499 84.5s-147.166 -28.167 -203.499 -84.5s-84.5 -124.166 -84.5 -203.499z" />
    <glyph glyph-name="uniE036" unicode="&#xe036;" 
d="M0 1472v-1536h1536v1536h-1536zM1440 32h-1344v1344h1344v-1344zM384 1088h768v-768h-768v768z" />
    <glyph glyph-name="uniE037" unicode="&#xe037;" 
d="M642 1376c9.33301 0 16.666 -4.33105 21.999 -12.998s8 -21.334 8 -38.001v-1242c0 -16.667 -2.66699 -29.334 -8 -38.001s-12.666 -13 -21.999 -13c-12 0 -25.333 7.33301 -40 22l-362 362h-240v576h240l362 362c14.667 14.667 28 22 40 22zM1536 608.002h-288v-288
h-192v288h-288v192h288v288h192v-288h288v-192z" />
    <glyph glyph-name="uniE038" unicode="&#xe038;" 
d="M642 1376c9.33301 0 16.666 -4.33105 21.999 -12.998s8 -21.334 8 -38.001v-1242c0 -16.667 -2.66699 -29.334 -8 -38.001s-12.666 -13 -21.999 -13c-12 0 -25.333 7.33301 -40 22l-362 362h-240v576h240l362 362c14.667 14.667 28 22 40 22zM768 800.002h768v-192h-768
v192z" />
    <glyph glyph-name="uniE039" unicode="&#xe039;" 
d="M602 1354c19.333 19.333 35.833 26.168 49.5 20.501s20.5 -22.167 20.5 -49.5v-1242c0 -27.333 -6.83301 -43.833 -20.5 -49.5s-30.167 1.16602 -49.5 20.499l-362 362h-240v576h240zM1440 543.002v-127h-127l-161 161l-161 -161h-127v127l161 161l-161 161v127h127
l161 -161l161 161h127v-127l-161 -161z" />
    <glyph glyph-name="uniE03A" unicode="&#xe03a;" horiz-adv-x="1632" 
d="M1335 89c-20 0 -37 6.99805 -51 20.998s-21 31 -21 51s7 37 21 51c66 65.333 116.5 140.5 151.5 225.5s52.5 173.833 52.5 266.5s-17.5 181.5 -52.5 266.5s-85.5 160.167 -151.5 225.5c-14 14 -21 31 -21 51s7 37 21 51s31 21 51 21s37 -7 51 -21
c79.333 -79.333 140.166 -170.166 182.499 -272.499s63.5 -209.5 63.5 -321.5s-21.167 -219.167 -63.5 -321.5s-103.166 -193.166 -182.499 -272.499c-14 -14 -31 -21 -51 -21zM1079 224.998c-20 0 -37 7.00195 -51 21.002s-21 31 -21 51s7 37 21 51
c48.667 48 85.5 103.5 110.5 166.5s37.5 126.167 37.5 189.5s-12.5 126.5 -37.5 189.5s-61.833 118.5 -110.5 166.5c-14 14 -21 31 -21 51s7 37 21 51s31 21 51 21s37 -7 51 -21c61.333 -61.333 108.333 -131.333 141 -210s49 -161.334 49 -248.001
s-16.333 -169.334 -49 -248.001s-79.667 -148.667 -141 -210c-14 -14 -31 -21 -51 -21zM823.5 360c-19.667 0 -36.5 7.16699 -50.5 21.5s-21 31.333 -21 51s7 36.5 21 50.5c60.667 61.333 91 135 91 221s-30.333 159.667 -91 221c-14 14 -21 30.833 -21 50.5s7 36.667 21 51
s30.833 21.5 50.5 21.5s36.5 -7.33301 50.5 -22c44 -43.333 77.333 -93.5 100 -150.5s34 -114.167 34 -171.5s-11.333 -114.5 -34 -171.5s-56 -107.167 -100 -150.5c-14 -14.667 -30.833 -22 -50.5 -22zM602 1354c19.333 19.333 35.833 26.168 49.5 20.501
s20.5 -22.167 20.5 -49.5v-1242c0 -27.333 -6.83301 -43.833 -20.5 -49.5s-30.167 1.16602 -49.5 20.499l-362 362h-240v576h240z" />
    <glyph glyph-name="uniE03B" unicode="&#xe03b;" 
d="M1079 225c-20 0 -37 7.00195 -51 21.002s-21 31 -21 51s7 37 21 51c48.667 48 85.5 103.5 110.5 166.5s37.5 126.167 37.5 189.5s-12.5 126.5 -37.5 189.5s-61.833 118.5 -110.5 166.5c-14 14 -21 31 -21 51s7 37 21 51s31 21 51 21s37 -7 51 -21
c61.333 -61.333 108.333 -131.333 141 -210s49 -161.334 49 -248.001s-16.333 -169.334 -49 -248.001s-79.667 -148.667 -141 -210c-14 -14 -31 -21 -51 -21zM823.5 360.002c-19.667 0 -36.5 7.16699 -50.5 21.5s-21 31.333 -21 51s7 36.5 21 50.5
c60.667 61.333 91 135 91 221s-30.333 159.667 -91 221c-14 14 -21 30.833 -21 50.5s7 36.667 21 51s30.833 21.5 50.5 21.5s36.5 -7.33301 50.5 -22c44 -43.333 77.333 -93.5 100 -150.5s34 -114.167 34 -171.5s-11.333 -114.5 -34 -171.5s-56 -107.167 -100 -150.5
c-14 -14.667 -30.833 -22 -50.5 -22zM602 1354c19.333 19.333 35.833 26.168 49.5 20.501s20.5 -22.167 20.5 -49.5v-1242c0 -27.333 -6.83301 -43.833 -20.5 -49.5s-30.167 1.16602 -49.5 20.499l-362 362h-240v576h240z" />
    <glyph glyph-name="uniE03C" unicode="&#xe03c;" 
d="M576 704h-480v192h480v192l288 -288l-288 -288v192zM1536 1472v-1248l-576 -288v288h-576v384h96v-288h480v864l384 192h-864v-384h-96v480h1152z" />
    <glyph glyph-name="uniE03D" unicode="&#xe03d;" 
d="M1152 512v192h-480v192h480v192l288 -288zM1056 608v-384h-480v-288l-576 288v1248h1056v-480h-96v384h-768l384 -192v-864h384v288h96z" />
    <glyph glyph-name="uniE03E" unicode="&#xe03e;" 
d="M288 605v-666c16 -2 32 -3 48 -3h48v672h-48c-16 0 -32 -1 -48 -3zM1152 608v-672h48c16 0 32 1 48 3v666c-16 2 -32 3 -48 3h-48zM1536 704c0 139.333 -34.3311 267.833 -102.998 385.5s-161.834 210.834 -279.501 279.501s-246.167 103 -385.5 103
s-267.833 -34.333 -385.5 -103s-210.834 -161.834 -279.501 -279.501s-103 -246.167 -103 -385.5c-0 -90.667 15.333 -178 46 -262c-30.667 -52.667 -46 -109.334 -46 -170.001c0 -66 17.5 -126.333 52.5 -181s81.5 -95.667 139.5 -123v608
c-30 -14.667 -57.333 -33.334 -82 -56.001c-9.33301 44.667 -14 90 -14 136c0 122 30 234.5 90 337.5s141.5 184.5 244.5 244.5s215.5 90 337.5 90s234.5 -30 337.5 -90s184.5 -141.5 244.5 -244.5s90 -215.5 90 -337.5c0 -46 -4.66699 -91.333 -14 -136
c-24.667 22.667 -52 41.334 -82 56.001v-608c58 27.333 104.5 68.333 139.5 123s52.5 115 52.5 181c0 60.667 -15.333 117.334 -46 170.001c30.667 84 46 171.333 46 262z" />
    <glyph glyph-name="uniE03F" unicode="&#xe03f;" 
d="M480 1184l1056 288v-96v-192v-816c0 -66 -32.833 -122.5 -98.5 -169.5s-144.834 -70.5 -237.501 -70.5s-171.834 23.5 -237.501 70.5s-98.5 103.5 -98.5 169.5s32.833 122.5 98.5 169.5s144.834 70.5 237.501 70.5c50.667 0 98.667 -7.66699 144 -23v494l-672 -183v-720
c0 -66 -32.833 -122.5 -98.5 -169.5s-144.834 -70.5 -237.501 -70.5s-171.834 23.5 -237.501 70.5s-98.5 103.5 -98.5 169.5s32.833 122.5 98.5 169.5s144.834 70.5 237.501 70.5c50.667 0 98.667 -7.66699 144 -23v503v288z" />
    <glyph glyph-name="uniE040" unicode="&#xe040;" 
d="M456 560c0 -86 30.5 -159.5 91.5 -220.5s134.5 -91.5 220.5 -91.5s159.5 30.5 220.5 91.5s91.5 134.5 91.5 220.5s-30.5 159.5 -91.5 220.5s-134.5 91.5 -220.5 91.5s-159.5 -30.5 -220.5 -91.5s-91.5 -134.5 -91.5 -220.5zM1440 1088h-335.996l-15.5 58
c-3.66699 13.333 -9.66699 30 -18 50s-16.833 35 -25.5 45s-20.334 19 -35.001 27s-31.334 12 -50.001 12h-384c-18.667 0 -35.334 -4 -50.001 -12s-26.334 -17 -35.001 -27s-17.167 -25 -25.5 -45s-14.333 -36.667 -18 -50l-15.5 -58h-336
c-26.667 0 -49.334 -9.33301 -68.001 -28s-28 -41.334 -28 -68.001v-864c0 -26.667 9.33301 -49.334 28 -68.001s41.334 -28 68.001 -28h1344c26.667 0 49.334 9.33301 68.001 28s28 41.334 28 68.001v864c0 26.667 -9.33301 49.334 -28 68.001s-41.334 28 -68.001 28z
M768.004 134c-117.333 0 -217.666 41.667 -300.999 125s-125 183.666 -125 300.999s41.667 217.666 125 300.999s183.666 125 300.999 125s217.666 -41.667 300.999 -125s125 -183.666 125 -300.999s-41.667 -217.666 -125 -300.999s-183.666 -125 -300.999 -125zM1440 800
h-192v96h192v-96z" />
    <glyph glyph-name="uniE041" unicode="&#xe041;" horiz-adv-x="1426" 
d="M1207 622v-412c0 -14.667 -5.5 -27.5 -16.5 -38.5s-23.833 -16.5 -38.5 -16.5h-329v330h-220v-330h-329c-14.667 0 -27.5 5.5 -38.5 16.5s-16.5 23.833 -16.5 38.5v412c0 0.666992 0.166992 1.5 0.5 2.5s0.5 1.83301 0.5 2.5l493 406l493 -406
c0.666992 -1.33301 1 -3 1 -5zM1398 681l-53 -64c-4.66699 -4.66699 -10.667 -7.66699 -18 -9h-3c-7.33301 0 -13.333 2 -18 6l-593 495l-593 -495c-6.66699 -4.66699 -13.667 -6.66699 -21 -6c-7.33301 1.33301 -13.333 4.33301 -18 9l-53 64
c-4.66699 5.33301 -6.66699 12 -6 20s4 14 10 18l616 514c18 14.667 39.667 22 65 22s47 -7.33301 65 -22l209 -175v167c0 8 2.66699 14.667 8 20s12 8 20 8h164c8 0 14.667 -2.66699 20 -8s8 -12 8 -20v-350l188 -156c5.33301 -4 8.33301 -10 9 -18
s-1.33301 -14.667 -6 -20z" />
    <glyph glyph-name="uniE042" unicode="&#xe042;" horiz-adv-x="1316" 
d="M1317 704c0 -89.333 -17.499 -174.5 -52.499 -255.5s-82 -151 -141 -210s-129 -105.833 -210 -140.5s-166 -52 -255 -52s-174.167 17.333 -255.5 52s-151.333 81.5 -210 140.5s-105.5 129 -140.5 210s-52.5 166.167 -52.5 255.5c0 104 23 202 69 294s110.667 169 194 231
c24.667 18.667 52 26 82 22s54 -18.333 72 -43c18 -24 24.833 -51 20.5 -81s-18.5 -54 -42.5 -72c-56 -42.667 -99.333 -94.5 -130 -155.5s-46 -126.167 -46 -195.5c0 -59.333 11.667 -116 35 -170s54.666 -100.667 93.999 -140s86 -70.666 140 -93.999s110.667 -35 170 -35
s116 11.667 170 35s100.833 54.666 140.5 93.999s71 86 94 140s34.5 110.667 34.5 170c0 69.333 -15.333 134.5 -46 195.5s-74 112.833 -130 155.5c-24 18 -38 42 -42 72s3 57 21 81c18 24.667 42 39 72 43s57 -3.33301 81 -22c84 -62 149 -139 195 -231s69 -190 69 -294z
M768.001 1362v-548c0 -30 -10.833 -55.833 -32.5 -77.5s-47.334 -32.5 -77.001 -32.5s-55.334 10.833 -77.001 32.5s-32.5 47.5 -32.5 77.5v548c0 30 10.833 55.833 32.5 77.5s47.334 32.5 77.001 32.5s55.334 -10.833 77.001 -32.5s32.5 -47.5 32.5 -77.5z" />
    <glyph glyph-name="uniE043" unicode="&#xe043;" horiz-adv-x="1426" 
d="M878 786v-55c0 -7.33301 -2.83301 -13.666 -8.5 -18.999s-12.167 -8 -19.5 -8h-192v-192c0 -7.33301 -2.66699 -13.666 -8 -18.999s-11.666 -8 -18.999 -8h-55c-7.33301 0 -13.666 2.66699 -18.999 8s-8 11.666 -8 18.999v192h-192c-8 0 -14.667 2.66699 -20 8
s-8 11.666 -8 18.999v55c0 7.33301 2.66699 13.833 8 19.5s12 8.5 20 8.5h192v192c0 7.33301 2.66699 13.666 8 18.999s11.666 8 18.999 8h55c7.33301 0 13.666 -2.66699 18.999 -8s8 -11.666 8 -18.999v-192h192c7.33301 0 13.833 -2.83301 19.5 -8.5
s8.5 -12.167 8.5 -19.5zM987 758.5c0 105.667 -37.5 196.167 -112.5 271.5s-165.333 113 -271 113s-196.167 -37.667 -271.5 -113s-113 -165.833 -113 -271.5s37.667 -196 113 -271s165.833 -112.5 271.5 -112.5s196 37.5 271 112.5s112.5 165.333 112.5 271zM1426 45.5
c0 -30.333 -10.6689 -56.1689 -32.002 -77.502s-47 -32 -77 -32c-31.333 0 -57.333 11 -78 33l-294 293c-102 -71.333 -216 -107 -342 -107c-81.333 0 -159.333 16 -234 48s-139 75 -193 129s-96.833 118.167 -128.5 192.5s-47.5 152.333 -47.5 234
s15.833 159.834 47.5 234.501s74.5 139 128.5 193s118.333 96.833 193 128.5s152.834 47.5 234.501 47.5s159.834 -15.833 234.501 -47.5s139 -74.5 193 -128.5s96.833 -118.333 128.5 -193s47.5 -152.667 47.5 -234c0 -126 -35.333 -240 -106 -342l294 -294
c20.667 -21.333 31 -47.166 31 -77.499z" />
    <glyph glyph-name="uniE044" unicode="&#xe044;" horiz-adv-x="1426" 
d="M878 786v-55c0 -7.33301 -2.83301 -13.666 -8.5 -18.999s-12.167 -8 -19.5 -8h-493c-8 0 -14.667 2.66699 -20 8s-8 11.666 -8 18.999v55c0 7.33301 2.66699 13.833 8 19.5s12 8.5 20 8.5h493c7.33301 0 13.833 -2.83301 19.5 -8.5s8.5 -12.167 8.5 -19.5zM987 758.5
c0 105.667 -37.5 196.167 -112.5 271.5s-165.333 113 -271 113s-196.167 -37.667 -271.5 -113s-113 -165.833 -113 -271.5s37.667 -196 113 -271s165.833 -112.5 271.5 -112.5s196 37.5 271 112.5s112.5 165.333 112.5 271zM1426 45.5
c0 -30.333 -10.6689 -56.1689 -32.002 -77.502s-47 -32 -77 -32c-31.333 0 -57.333 11 -78 33l-294 293c-102 -71.333 -216 -107 -342 -107c-81.333 0 -159.333 16 -234 48s-139 75 -193 129s-96.833 118.167 -128.5 192.5s-47.5 152.333 -47.5 234
s15.833 159.834 47.5 234.501s74.5 139 128.5 193s118.333 96.833 193 128.5s152.834 47.5 234.501 47.5s159.834 -15.833 234.501 -47.5s139 -74.5 193 -128.5s96.833 -118.333 128.5 -193s47.5 -152.667 47.5 -234c0 -126 -35.333 -240 -106 -342l294 -294
c20.667 -21.333 31 -47.166 31 -77.499z" />
    <glyph glyph-name="uniE045" unicode="&#xe045;" horiz-adv-x="960" 
d="M480 1280c79.333 0 147.17 -28.333 203.503 -85s84.5 -124.667 84.5 -204c0 -45.333 -10 -88 -30 -128s-48 -73.667 -84 -101c-92.667 -70 -148.334 -153 -167.001 -249h-14c-18.667 96 -74.334 179 -167.001 249c-36 27.333 -64 61 -84 101s-30 82.667 -30 128
c0 79.333 28.167 147.333 84.5 204s124.166 85 203.499 85zM480.004 1472c-65.333 0 -127.5 -12.667 -186.5 -38s-110 -59.5 -153 -102.5s-77.167 -94.167 -102.5 -153.5s-38 -121.666 -38 -186.999c0 -77.333 17 -149.333 51 -216s80.667 -122.334 140 -167.001
c64.667 -49.333 97 -104.333 97 -165v-122h384v122c0 60.667 32.333 115.667 97 165c59.333 44.667 106 100.334 140 167.001s51 138.667 51 216c0 65.333 -12.667 127.666 -38 186.999s-59.5 110.5 -102.5 153.5s-94 77.167 -153 102.5s-121.167 38 -186.5 38zM288.004 128
h384v-192h-384v192z" />
    <glyph glyph-name="uniE046" unicode="&#xe046;" horiz-adv-x="1152" 
d="M672.5 1472c-65 0 -127.165 -12.667 -186.498 -38s-110.5 -59.5 -153.5 -102.5s-77.167 -94 -102.5 -153s-38 -121.167 -38 -186.5v-96h-192v-672c0 -79.333 28.167 -147.166 84.5 -203.499s124.166 -84.5 203.499 -84.5h576c79.333 0 147.166 28.167 203.499 84.5
s84.5 124.166 84.5 203.499v768c0 65.333 -12.667 127.5 -38 186.5s-59.5 110 -102.5 153s-94 77.167 -153 102.5s-121 38 -186 38zM384.002 992c0 79.333 28.1689 147.166 84.502 203.499s124.166 84.5 203.499 84.5s147.166 -28.167 203.499 -84.5
s84.5 -124.166 84.5 -203.499v-96h-576v96zM864.004 128h-575.998c-26.667 0 -49.334 9.33301 -68.001 28s-28 41.334 -28 68.001v480h768v-480c0 -26.667 -9.33301 -49.334 -28 -68.001s-41.334 -28 -68.001 -28zM672.006 416c0 -26.667 -9.33301 -49.334 -28 -68.001
s-41.334 -28 -68.001 -28s-49.334 9.33301 -68.001 28s-28 41.334 -28 68.001s9.33301 49.334 28 68.001s41.334 28 68.001 28s49.334 -9.33301 68.001 -28s28 -41.334 28 -68.001z" />
    <glyph glyph-name="uniE047" unicode="&#xe047;" horiz-adv-x="877" 
d="M631 978c0 -7.33301 -2.66602 -13.6641 -7.99902 -18.9971s-11.833 -8 -19.5 -8s-14.167 2.66699 -19.5 8s-8 11.666 -8 18.999c0 26.667 -15.5 47.167 -46.5 61.5s-61.167 21.5 -90.5 21.5c-7.33301 0 -13.833 2.66699 -19.5 8s-8.5 11.666 -8.5 18.999
s2.83301 13.666 8.5 18.999s12.167 8 19.5 8c28.667 0 57.167 -4.5 85.5 -13.5s53.166 -24.333 74.499 -46s32 -47.5 32 -77.5zM768.001 978.002c0 41.333 -9.82812 79.667 -29.4951 115s-45.334 64.333 -77.001 87s-66.834 40.5 -105.501 53.5s-77.667 19.5 -117 19.5
s-78.333 -6.5 -117 -19.5s-73.834 -30.833 -105.501 -53.5s-57.334 -51.667 -77.001 -87s-29.5 -73.666 -29.5 -114.999c0 -57.333 19.333 -108.666 58 -153.999c6 -6 14.833 -15.333 26.5 -28s20.167 -22.334 25.5 -29.001c73.333 -87.333 113.666 -172.333 120.999 -255
h196c7.33301 82.667 47.333 167.667 120 255l26.5 29c11.667 12.667 20.5 22 26.5 28c38.667 45.333 58 96.666 58 153.999zM878.006 978.003c0 -88.667 -29.665 -165 -88.998 -229c-25.333 -28 -46.5 -53 -63.5 -75s-34 -49.333 -51 -82s-26.833 -63.334 -29.5 -92.001
c27.333 -16 41 -39.333 41 -70c0 -21.333 -7.33301 -39.666 -22 -54.999c14.667 -15.333 22 -33.666 22 -54.999c0 -30 -13 -53 -39 -69c7.33301 -13.333 11 -27 11 -41c0 -26 -9 -46.167 -27 -60.5s-40 -21.5 -66 -21.5c-11.333 -25.333 -28.5 -45.333 -51.5 -60
s-47.833 -22 -74.5 -22s-51.5 7.33301 -74.5 22s-40.167 34.667 -51.5 60c-26.667 0 -49 7.16699 -67 21.5s-27 34.5 -27 60.5c0 14 4 27.667 12 41c-26 16 -39 39 -39 69c0 21.333 7 39.666 21 54.999c-14 15.333 -21 33.666 -21 54.999c0 30.667 13.333 54 40 70
c-2 28.667 -11.667 59.334 -29 92.001s-34.333 60 -51 82s-38 47 -64 75c-58.667 64 -88 140.333 -88 229c0 56.667 12.667 109.5 38 158.5s58.833 89.667 100.5 122s88.5 57.666 140.5 75.999s105.167 27.5 159.5 27.5s107.666 -9.16699 159.999 -27.5
s99.166 -43.666 140.499 -75.999s74.833 -73 100.5 -122s38.5 -101.833 38.5 -158.5z" />
    <glyph glyph-name="uniE048" unicode="&#xe048;" 
d="M1296 368h-1056l-144 -144v-48l48 -48h432c0 -53.333 18.667 -98.666 56 -135.999s82.666 -56 135.999 -56s98.666 18.667 135.999 56s56 82.666 56 135.999h432l48 48v48zM1248 752c0 96.667 -26.502 184.667 -79.502 264s-122.5 138 -208.5 176v88
c0 53.333 -18.667 98.666 -56 135.999s-82.666 56 -135.999 56s-98.666 -18.667 -135.999 -56s-56 -82.666 -56 -135.999v-88c-86 -38 -155.5 -96.667 -208.5 -176s-79.5 -167.333 -79.5 -264v-336h960v336zM672 1280c0 26.667 9.33105 49.334 27.998 68.001
s41.334 28 68.001 28s49.334 -9.33301 68.001 -28s28 -41.334 28 -68.001h-192z" />
    <glyph glyph-name="uniE049" unicode="&#xe049;" horiz-adv-x="1645" 
d="M329 101v109c0 15.333 -5.33301 28.333 -16 39s-23.667 16 -39 16h-109c-15.333 0 -28.333 -5.33301 -39 -16s-16 -23.667 -16 -39v-109c0 -15.333 5.33301 -28.333 16 -39s23.667 -16 39 -16h109c15.333 0 28.333 5.33301 39 16s16 23.667 16 39zM329 430v109
c0 15.333 -5.33301 28.333 -16 39s-23.667 16 -39 16h-109c-15.333 0 -28.333 -5.33301 -39 -16s-16 -23.667 -16 -39v-109c0 -15.333 5.33301 -28.333 16 -39s23.667 -16 39 -16h109c15.333 0 28.333 5.33301 39 16s16 23.667 16 39zM329 759v110
c0 14.667 -5.33301 27.334 -16 38.001s-23.667 16 -39 16h-109c-15.333 0 -28.333 -5.33301 -39 -16s-16 -23.334 -16 -38.001v-110c0 -14.667 5.33301 -27.5 16 -38.5s23.667 -16.5 39 -16.5h109c15.333 0 28.333 5.5 39 16.5s16 23.833 16 38.5zM1207 101v438
c0 15.333 -5.5 28.333 -16.5 39s-23.833 16 -38.5 16h-658c-15.333 0 -28.333 -5.33301 -39 -16s-16 -23.667 -16 -39v-438c0 -15.333 5.33301 -28.333 16 -39s23.667 -16 39 -16h658c14.667 0 27.5 5.33301 38.5 16s16.5 23.667 16.5 39zM329 1088v110
c0 14.667 -5.33301 27.5 -16 38.5s-23.667 16.5 -39 16.5h-109c-15.333 0 -28.333 -5.5 -39 -16.5s-16 -23.833 -16 -38.5v-110c0 -14.667 5.33301 -27.5 16 -38.5s23.667 -16.5 39 -16.5h109c15.333 0 28.333 5.5 39 16.5s16 23.833 16 38.5zM1536 101v109
c0 15.333 -5.5 28.333 -16.5 39s-23.833 16 -38.5 16h-110c-14.667 0 -27.334 -5.33301 -38.001 -16s-16 -23.667 -16 -39v-109c0 -15.333 5.33301 -28.333 16 -39s23.334 -16 38.001 -16h110c14.667 0 27.5 5.33301 38.5 16s16.5 23.667 16.5 39zM1207 759v439
c0 14.667 -5.5 27.5 -16.5 38.5s-23.833 16.5 -38.5 16.5h-658c-15.333 0 -28.333 -5.5 -39 -16.5s-16 -23.833 -16 -38.5v-439c0 -14.667 5.33301 -27.5 16 -38.5s23.667 -16.5 39 -16.5h658c14.667 0 27.5 5.5 38.5 16.5s16.5 23.833 16.5 38.5zM1536 430v109
c0 15.333 -5.5 28.333 -16.5 39s-23.833 16 -38.5 16h-110c-14.667 0 -27.334 -5.33301 -38.001 -16s-16 -23.667 -16 -39v-109c0 -15.333 5.33301 -28.333 16 -39s23.334 -16 38.001 -16h110c14.667 0 27.5 5.33301 38.5 16s16.5 23.667 16.5 39zM1536 759v110
c0 14.667 -5.5 27.334 -16.5 38.001s-23.833 16 -38.5 16h-110c-14.667 0 -27.334 -5.33301 -38.001 -16s-16 -23.334 -16 -38.001v-110c0 -14.667 5.33301 -27.5 16 -38.5s23.334 -16.5 38.001 -16.5h110c14.667 0 27.5 5.5 38.5 16.5s16.5 23.833 16.5 38.5zM1536 1088
v110c0 14.667 -5.5 27.5 -16.5 38.5s-23.833 16.5 -38.5 16.5h-110c-14.667 0 -27.334 -5.5 -38.001 -16.5s-16 -23.833 -16 -38.5v-110c0 -14.667 5.33301 -27.5 16 -38.5s23.334 -16.5 38.001 -16.5h110c14.667 0 27.5 5.5 38.5 16.5s16.5 23.833 16.5 38.5zM1646 1225
v-1152c0 -37.333 -13.5 -69.5 -40.5 -96.5s-59.167 -40.5 -96.5 -40.5h-1372c-37.333 0 -69.5 13.5 -96.5 40.5s-40.5 59.167 -40.5 96.5v1152c0 38 13.5 70.333 40.5 97s59.167 40 96.5 40h1372c37.333 0 69.5 -13.333 96.5 -40s40.5 -59 40.5 -97z" />
    <glyph glyph-name="uniE04A" unicode="&#xe04a;" horiz-adv-x="1316" 
d="M1317 1280l0.00390625 -959.996c0 -28.667 -9.83301 -54.167 -29.5 -76.5s-44.334 -39.666 -74.001 -51.999s-59.167 -21.5 -88.5 -27.5s-56.833 -9 -82.5 -9s-53.334 3 -83.001 9s-59.334 15.167 -89.001 27.5s-54.167 29.666 -73.5 51.999s-29 47.833 -29 76.5
s9.66699 54.167 29 76.5s43.833 39.666 73.5 51.999s59.334 21.5 89.001 27.5s57.167 9 82.5 9c60 0 115 -11.333 165 -34v460l-658 -203v-607c0 -28.667 -9.83301 -54.167 -29.5 -76.5s-44.334 -39.666 -74.001 -51.999s-59.167 -21.5 -88.5 -27.5s-56.833 -9 -82.5 -9
s-53.334 3 -83.001 9s-59.334 15.167 -89.001 27.5s-54.167 29.666 -73.5 51.999s-29 47.666 -29 75.999s9.66699 53.666 29 75.999s43.833 39.666 73.5 51.999s59.334 21.5 89.001 27.5s57.167 9 82.5 9c60 0 115 -11 165 -33v829c0 17.333 5.33301 33.333 16 48
s24.667 24.667 42 30l713 220c7.33301 2 15.333 3 24 3c23.333 0 43 -8 59 -24s24 -35.333 24 -58z" />
    <glyph glyph-name="uniE04B" unicode="&#xe04b;" 
d="M576 416c24 0 46 10 66 30s30 42 30 66v384c0 24 -10 46 -30 66s-42 30 -66 30s-46 -10 -66 -30s-30 -42 -30 -66v-384c0 -24 10 -46 30 -66s42 -30 66 -30zM288 416c24 0 46 10 66 30s30 42 30 66v384c0 24 -10 46 -30 66s-42 30 -66 30s-46 -10 -66 -30
s-30 -42 -30 -66v-384c0 -24 10 -46 30 -66s42 -30 66 -30zM1440 896v96c0 48 -20 92 -60 132s-84 60 -132 60h-1056c-48 0 -92 -20 -132 -60s-60 -84 -60 -132v-576c0 -48 20 -92 60 -132s84 -60 132 -60h1056c48 0 92 20 132 60s60 84 60 132v96h96v384h-96zM1344 320
h-1248v768h1248v-768z" />
    <glyph glyph-name="uniE04C" unicode="&#xe04c;" 
d="M1248 1472v-1536h192v1536h-192zM960 1184v-1248h192v1248h-192zM672 896v-960h192v960h-192zM384 608v-672h192v672h-192zM96 320v-384h192v384h-192z" />
    <glyph glyph-name="uniE04D" unicode="&#xe04d;" 
d="M1152 1472l-768 -667l416 -223l-416 -646l768 667l-320 223z" />
    <glyph glyph-name="uniE04E" unicode="&#xe04e;" 
d="M0 224v-288h288v288h-288zM0 800v-288h288v288h-288zM0 1376v-288h288v288h-288zM480 800v-288h1056v288h-1056zM480 224v-288h1056v288h-1056zM480 1376v-288h1056v288h-1056z" />
    <glyph glyph-name="uniE04F" unicode="&#xe04f;" 
d="M0 800v-288h1536v288h-1536zM0 224v-288h1536v288h-1536zM0 1376v-288h1536v288h-1536z" />
    <glyph glyph-name="uniE050" unicode="&#xe050;" 
d="M509 553l-100 -99.998h-267c-10 0 -16.5 -3.33301 -19.5 -10s-1.5 -13.667 4.5 -21l360 -455c6 -7.33301 12.833 -10.333 20.5 -9s13.167 6.66602 16.5 15.999l80 255l61 68l256 260l86 -522c4 -24.667 18.167 -47.334 42.5 -68.001s48.833 -31 73.5 -31h105v931l307 311
l1 98c0 25.333 -10.333 48.333 -31 69s-43.334 31 -68.001 31h-117l-399 -302h-921v-107c0 -25.333 10.333 -49.833 31 -73.5s43.334 -37.5 68.001 -41.5l618 -89l-208 -210v0z" />
    <glyph glyph-name="uniE051" unicode="&#xe051;" 
d="M1274 1211h-1012c-46.667 0 -86.5 -16.5 -119.5 -49.5s-49.5 -72.833 -49.5 -119.5v-590c0 -46.667 16.5 -86.5 49.5 -119.5s72.833 -49.5 119.5 -49.5h1012c46.667 0 86.5 16.5 119.5 49.5s49.5 72.833 49.5 119.5v590c0 46.667 -16.5 86.5 -49.5 119.5
s-72.833 49.5 -119.5 49.5zM1359 554l-317 361l-443 -274l215 -274h-17l-282 358l-338 -163v480c0 23.333 8.33301 43.333 25 60s36.667 25 60 25h1012c23.333 0 43.333 -8.33301 60 -25s25 -36.667 25 -60v-488zM504 1063c-32 0 -59.333 -11.333 -82 -34s-34 -50 -34 -82
s11.333 -59.333 34 -82s50 -34 82 -34s59.333 11.333 82 34s34 50 34 82s-11.333 59.333 -34 82s-50 34 -82 34z" />
    <glyph glyph-name="uniE052" unicode="&#xe052;" 
d="M1521 1088v92c0 17.333 -6 32 -18 44s-26.667 18 -44 18h-1382c-17.333 0 -32 -6 -44 -18s-18 -26.667 -18 -44v-92h154v-154h-154v-153h154v-154h-154v-153h154v-154h-154v-92c0 -17.333 6 -32 18 -44s26.667 -18 44 -18h1382c17.333 0 32 6 44 18s18 26.667 18 44v92
h-154v154h154v153h-154v154h154v153h-154v154h154zM599 474v460l384 -230z" />
    <glyph glyph-name="uniE053" unicode="&#xe053;" 
d="M1152 1395h-768c-42 0 -78.167 -15 -108.5 -45s-45.5 -66 -45.5 -108v-1076c0 -42 15.167 -78 45.5 -108s66.5 -45 108.5 -45h768c42 0 78.167 15 108.5 45s45.5 66 45.5 108v1076c0 42 -15.167 78 -45.5 108s-66.5 45 -108.5 45zM983 664
c-11.333 -17.333 -19.0039 -22 -23.0039 -14c-2 3.33301 -2 8 0 14c4.66699 12.667 6.83398 28 6.50098 46s-3.16602 37.333 -8.49902 58s-17 39.334 -35 56.001s-41.333 27.334 -70 32.001v-401c0 -37.333 -10.833 -68.166 -32.5 -92.499s-55.5 -43.833 -101.5 -58.5
c-44.667 -14 -88.167 -14.5 -130.5 -1.5s-69.333 35.333 -81 67s-6 64.5 17 98.5s56.167 59 99.5 75c50 18 95.667 18.667 137 2v565h92c0 -12.667 4.66699 -27.334 14 -44.001s20.833 -33.834 34.5 -51.501l44 -56.5c15.667 -20 29.334 -41.333 41.001 -64
s20.834 -45.834 27.501 -69.501s7.5 -49.5 2.5 -77.5s-16.167 -55.667 -33.5 -83z" />
    <glyph glyph-name="uniE054" unicode="&#xe054;" 
d="M624 1280c13.333 0 24.666 4.66699 33.999 14s14 20.666 14 33.999v96c0 13.333 -4.66699 24.666 -14 33.999s-20.666 14 -33.999 14s-24.666 -4.66699 -33.999 -14s-14 -20.666 -14 -33.999v-96c0 -13.333 4.66699 -24.666 14 -33.999s20.666 -14 33.999 -14zM997 1153
l68 68.002c9.33301 9.33301 14 20.666 14 33.999s-4.66699 24.666 -14 33.999s-20.666 14 -33.999 14s-24.666 -4.66699 -33.999 -14l-68 -68c-9.33301 -9.33301 -14 -20.5 -14 -33.5s4.66699 -24.333 14 -34s20.666 -14.5 33.999 -14.5s24.666 4.66699 33.999 14z
M48 800.002h96c13.333 0 24.666 4.66699 33.999 14s14 20.666 14 33.999s-4.66699 24.666 -14 33.999s-20.666 14 -33.999 14h-96c-13.333 0 -24.666 -4.66699 -33.999 -14s-14 -20.666 -14 -33.999s4.66699 -24.666 14 -33.999s20.666 -14 33.999 -14zM1056 848.002
c0 -13.333 4.66699 -24.666 14 -33.999s20.666 -14 33.999 -14h96c13.333 0 24.666 4.66699 33.999 14s14 20.666 14 33.999s-4.66699 24.666 -14 33.999s-20.666 14 -33.999 14h-96c-13.333 0 -24.666 -4.66699 -33.999 -14s-14 -20.666 -14 -33.999zM251 1153
c9.33301 -9.33301 20.498 -14.002 33.498 -14.002s24.333 4.83301 34 14.5s14.5 21 14.5 34s-5 24.167 -15 33.5l-67 68c-9.33301 9.33301 -20.666 14 -33.999 14s-24.666 -4.66699 -33.999 -14s-14 -20.666 -14 -33.999s4.66699 -24.666 14 -33.999zM1200 704
c-16 0 -31.667 -0.999023 -47 -2.99902c-50 68 -114.667 119.333 -194 154c-1.33301 60 -17 115.167 -47 165.5s-70.5 90.166 -121.5 119.499s-106.5 44 -166.5 44c-92.667 0 -171.834 -32.833 -237.501 -98.5s-98.5 -144.834 -98.5 -237.501c0 -50 11.333 -98.333 34 -145
c-89.333 -4 -165.333 -38.333 -228 -103s-94 -142 -94 -232c0 -92.667 32.833 -171.834 98.5 -237.501s144.834 -98.5 237.501 -98.5c41.333 0 81 7.33301 119 22c43.333 -38 92 -67.167 146 -87.5s109.667 -30.5 167 -30.5s112.833 10.167 166.5 30.5
s102.5 49.5 146.5 87.5c38 -14.667 77.667 -22 119 -22c92.667 0 171.834 32.833 237.501 98.5s98.5 144.834 98.5 237.501s-32.833 171.834 -98.5 237.501s-144.834 98.5 -237.501 98.5zM767.998 896.001c-68.667 0 -133.665 -14 -194.998 -42
s-114.666 -67.333 -159.999 -118c-19.333 36.667 -29 74 -29 112c0 66 23.5 122.5 70.5 169.5s103.5 70.5 169.5 70.5c59.333 0 111.166 -19.167 155.499 -57.5s71.166 -86.5 80.499 -144.5c-32.667 6.66699 -63.334 10 -92.001 10z" />
    <glyph glyph-name="uniE055" unicode="&#xe055;" 
d="M1305 686c20.667 14.667 34.9961 26.001 42.9961 34.001c40 40 69.667 88 89 144c7.33301 18.667 3.83301 35.167 -10.5 49.5s-31.166 18.166 -50.499 11.499c-53.333 -18.667 -106.833 -22 -160.5 -10s-100.167 37.667 -139.5 77s-65 85.833 -77 139.5
s-8.33301 107.167 11 160.5c6.66699 18.667 2.83398 35.167 -11.499 49.5s-31.166 18.166 -50.499 11.499c-55.333 -20 -103 -50 -143 -90c-49.333 -49.333 -82.5 -107.666 -99.5 -174.999s-16.5 -132.666 1.5 -195.999c-64.667 -8 -125 -28.667 -181 -62
s-103.667 -76.333 -143 -129c-15.333 2 -31 3 -47 3c-60.667 0 -116.834 -15 -168.501 -45s-92.5 -70.833 -122.5 -122.5s-45 -107.834 -45 -168.501s15 -116.834 45 -168.501s70.833 -92.5 122.5 -122.5s107.834 -45 168.501 -45c41.333 0 81 7.33301 119 22
c43.333 -38 92 -67.167 146 -87.5s109.667 -30.5 167 -30.5s112.833 10.167 166.5 30.5s102.5 49.5 146.5 87.5c38 -14.667 77.667 -22 119 -22c60.667 0 116.834 15 168.501 45s92.5 70.833 122.5 122.5s45 107.834 45 168.501c0 73.333 -21.5 139 -64.5 197
s-98.5 98.333 -166.5 121zM872.996 1195c7.33301 8 15.333 15.333 24 22c-3.33301 -54 4.66699 -106.5 24 -157.5s48.5 -96.167 87.5 -135.5s84 -68.5 135 -87.5s103.833 -26.833 158.5 -23.5c-40 -51.333 -93.333 -84.666 -160 -99.999
c-40.667 52.667 -90.167 94.667 -148.5 126s-120.833 49.666 -187.5 54.999c-18.667 50 -22.167 102.667 -10.5 158s37.5 103 77.5 143z" />
    <glyph glyph-name="uniE056" unicode="&#xe056;" 
d="M1200 992c-16 0 -31.6689 -1 -47.002 -3c-45.333 61.333 -101.666 109.166 -168.999 143.499s-139.333 51.5 -216 51.5s-148.667 -17.167 -216 -51.5s-123.666 -82.166 -168.999 -143.499c-15.333 2 -31 3 -47 3c-92.667 0 -171.834 -32.833 -237.501 -98.5
s-98.5 -144.834 -98.5 -237.501s32.833 -171.834 98.5 -237.501s144.834 -98.5 237.501 -98.5c41.333 0 81 7.33301 119 22c43.333 -38 92 -67.167 146 -87.5s109.667 -30.5 167 -30.5s112.833 10.167 166.5 30.5s102.5 49.5 146.5 87.5c38 -14.667 77.667 -22 119 -22
c92.667 0 171.834 32.833 237.501 98.5s98.5 144.834 98.5 237.501s-32.833 171.834 -98.5 237.501s-144.834 98.5 -237.501 98.5z" />
    <glyph glyph-name="uniE057" unicode="&#xe057;" 
d="M1200 1280c-16 0 -31.6689 -1 -47.002 -3c-45.333 61.333 -101.666 109.166 -168.999 143.499s-139.333 51.5 -216 51.5s-148.667 -17.167 -216 -51.5s-123.666 -82.166 -168.999 -143.499c-15.333 2 -31 3 -47 3c-92.667 0 -171.834 -32.833 -237.501 -98.5
s-98.5 -144.834 -98.5 -237.501s32.833 -171.834 98.5 -237.501s144.834 -98.5 237.501 -98.5c41.333 0 81 7.33301 119 22c43.333 -38 92 -67.167 146 -87.5s109.667 -30.5 167 -30.5s112.833 10.167 166.5 30.5s102.5 49.5 146.5 87.5c38 -14.667 77.667 -22 119 -22
c92.667 0 171.834 32.833 237.501 98.5s98.5 144.834 98.5 237.501s-32.833 171.834 -98.5 237.501s-144.834 98.5 -237.501 98.5zM674.998 32c0 -26.667 9.33105 -49.334 27.998 -68.001s41.334 -28 68.001 -28s49.334 9.33301 68.001 28s28 41.334 28 68.001
c0 34 -31.333 97 -94 189l-2 3c-64 -92.667 -96 -156.667 -96 -192zM1056 128c0 -26.667 9.33105 -49.334 27.998 -68.001s41.334 -28 68.001 -28s49.334 9.33301 68.001 28s28 41.334 28 68.001c0 34 -31.333 97 -94 189l-2 3c-64 -92.667 -96 -156.667 -96 -192z
M287.994 320c0 -26.667 9.33105 -49.334 27.998 -68.001s41.334 -28 68.001 -28s49.334 9.33301 68.001 28s28 41.334 28 68.001c0 34 -31.333 97 -94 189l-2 3c-64 -92.667 -96 -156.667 -96 -192z" />
    <glyph glyph-name="uniE058" unicode="&#xe058;" 
d="M1251 974c-36 36.667 -77.833 65.167 -125.5 85.5s-97.5 30.5 -149.5 30.5s-101.833 -10.167 -149.5 -30.5s-89.5 -48.833 -125.5 -85.5c-79.333 -4 -146.666 -34.833 -201.999 -92.5s-83 -126.5 -83 -206.5c0 -82.667 29.167 -153.167 87.5 -211.5
s128.833 -87.5 211.5 -87.5c17.333 0 34.666 1.33301 51.999 4c64 -41.333 133.667 -62 209 -62c76 0 145.667 20.667 209 62c17.333 -2.66699 34.666 -4 51.999 -4c82.667 0 153.167 29.167 211.5 87.5s87.5 128.833 87.5 211.5c0 80 -27.667 148.833 -83 206.5
s-122.666 88.5 -201.999 92.5zM432 416h-384c-13.333 0 -24.666 -4.66699 -33.999 -14s-14 -20.666 -14 -33.999s4.66699 -24.666 14 -33.999s20.666 -14 33.999 -14h384c13.333 0 24.666 4.66699 33.999 14s14 20.666 14 33.999s-4.66699 24.666 -14 33.999
s-20.666 14 -33.999 14zM48 512h192c13.333 0 24.666 4.66699 33.999 14s14 20.666 14 33.999s-4.66699 24.666 -14 33.999s-20.666 14 -33.999 14h-192c-13.333 0 -24.666 -4.66699 -33.999 -14s-14 -20.666 -14 -33.999s4.66699 -24.666 14 -33.999s20.666 -14 33.999 -14
zM144 704h192c13.333 0 24.666 4.66699 33.999 14s14 20.666 14 33.999s-4.66699 24.666 -14 33.999s-20.666 14 -33.999 14h-192c-13.333 0 -24.666 -4.66699 -33.999 -14s-14 -20.666 -14 -33.999s4.66699 -24.666 14 -33.999s20.666 -14 33.999 -14z" />
    <glyph glyph-name="uniE059" unicode="&#xe059;" 
d="M768 1472c-139.333 0 -267.833 -34.333 -385.5 -103s-210.834 -161.834 -279.501 -279.501s-103 -246.167 -103 -385.5s34.333 -267.833 103 -385.5s161.834 -210.834 279.501 -279.501s246.167 -103 385.5 -103s267.833 34.333 385.5 103
s210.834 161.834 279.501 279.501s103 246.167 103 385.5s-34.333 267.833 -103 385.5s-161.834 210.834 -279.501 279.501s-246.167 103 -385.5 103zM768 128c-78 0 -152.5 15.167 -223.5 45.5s-132.333 71.333 -184 123s-92.667 113 -123 184s-45.5 145.5 -45.5 223.5
s15.167 152.5 45.5 223.5s71.333 132.333 123 184s113 92.667 184 123s145.5 45.5 223.5 45.5s152.5 -15.167 223.5 -45.5s132.333 -71.333 184 -123s92.667 -113 123 -184s45.5 -145.5 45.5 -223.5s-15.167 -152.5 -45.5 -223.5s-71.333 -132.333 -123 -184
s-113 -92.667 -184 -123s-145.5 -45.5 -223.5 -45.5zM480 416l384 192l192 384l-384 -192z" />
    <glyph glyph-name="uniE05A" unicode="&#xe05a;" 
d="M628 943c-11.333 10 -24 18 -38 24c-14.667 6 -30.167 9 -46.5 9s-31.5 -3 -45.5 -9c-14.667 -6 -27.334 -14 -38.001 -24s-19.167 -22 -25.5 -36s-9.5 -28.667 -9.5 -44s3.16699 -30 9.5 -44s14.833 -26 25.5 -36s23.334 -18 38.001 -24c14 -6 29.167 -9 45.5 -9
s31.833 3 46.5 9c14 6 26.667 14 38 24c10.667 10 19 22 25 36s9 28.667 9 44s-3 30 -9 44c-6 13.333 -14.333 25.333 -25 36zM581.5 827c-10.333 -10 -22.833 -15 -37.5 -15s-27.167 5 -37.5 15s-15.5 22 -15.5 36s5 26 15 36s22.5 15 37.5 15s27.667 -5 38 -15
s15.5 -22 15.5 -36s-5.16699 -26 -15.5 -36zM1006 537c-18 -5.33301 -36.001 -7.99805 -54.001 -7.99805c-12 0 -23.833 1.83301 -35.5 5.5s-22.167 9.16699 -31.5 16.5c-9.33301 8 -17 18 -23 30s-9 26.667 -9 44v154c0 17.333 3 32.333 9 45c6 12 13.667 21.833 23 29.5
s19.666 13.167 30.999 16.5c12 3.33301 24 5 36 5c18 0 36.333 -2.66699 55 -8s36.334 -15 53.001 -29l51 82c-20.667 18 -45.334 31 -74.001 39s-58 12 -88 12c-25.333 0 -50 -3.5 -74 -10.5s-45.333 -17.833 -64 -32.5c-19.333 -14.667 -34.666 -32.334 -45.999 -53.001
c-11.333 -21.333 -17 -46 -17 -74v-198c0 -28.667 5.83301 -53.667 17.5 -75s27 -39 46 -53s40.5 -24.667 64.5 -32c24.667 -7.33301 49.334 -11 74.001 -11c31.333 0 61 4.66699 89 14s52 22 72 38l-50 82c-18.667 -14.667 -37 -24.334 -55 -29.001z" />
    <glyph glyph-name="uniE05B" unicode="&#xe05b;" 
d="M625.5 940c-11 10 -23.5 18.001 -37.5 24.001c-14.667 6 -30 9 -46 9s-31.333 -3 -46 -9s-27.334 -14 -38.001 -24s-19 -22 -25 -36s-9 -28.667 -9 -44s3 -29.833 9 -43.5s14.333 -25.834 25 -36.501c10.667 -10 23.334 -18 38.001 -24c14 -6 29.167 -9 45.5 -9
s31.833 3 46.5 9c14 6 26.667 14 38 24c10.667 10.667 19 22.667 25 36c6 14.667 9 29.5 9 44.5s-3 29.5 -9 43.5s-14.5 26 -25.5 36zM579.5 824.501c-10.333 -10.333 -22.833 -15.5 -37.5 -15.5s-27.167 5.16699 -37.5 15.5s-15.5 22.166 -15.5 35.499
c0 14.667 5.16699 27 15.5 37s22.833 15 37.5 15s27.167 -5 37.5 -15s15.5 -22.333 15.5 -37c0 -13.333 -5.16699 -25.166 -15.5 -35.499zM1112 870.001v94h-364v-529h105v216h222v94h-222v125h259z" />
    <glyph glyph-name="uniE05C" unicode="&#xe05c;" 
d="M1536 1068c0 73.333 -26.168 136.166 -78.501 188.499s-115.5 78.5 -189.5 78.5c-7.33301 0 -14.333 -0.333008 -21 -1c-34.667 43.333 -77.167 77.166 -127.5 101.499s-103.5 36.5 -159.5 36.5s-109.167 -12.167 -159.5 -36.5s-92.833 -58.166 -127.5 -101.499
c-6.66699 0.666992 -14 1 -22 1c-73.333 0 -136.166 -26.167 -188.499 -78.5s-78.5 -115.166 -78.5 -188.499c0 -12 1.33301 -27.333 4 -46c0 -0.666992 -0.666992 -1.66699 -2 -3l-3 -3c-15.333 2.66699 -31 4 -47 4c-60.667 0 -116.834 -15.167 -168.501 -45.5
s-92.5 -71.166 -122.5 -122.499s-45 -107.5 -45 -168.5s15 -117.167 45 -168.5s70.833 -92 122.5 -122s107.834 -45 168.501 -45c41.333 0 81 7 119 21c53.333 -46 116.666 -79 189.999 -99l-69 -46l96 -96l-96 -192l288 192l-96 96l14 29
c114 3.33301 213.667 42.333 299 117c38 -14.667 77.667 -22 119 -22c60.667 0 116.834 15 168.501 45s92.5 70.667 122.5 122s45 107.666 45 168.999c0 74.667 -23.667 142.667 -71 204c47.333 51.333 71 111.333 71 180z" />
    <glyph glyph-name="uniE05D" unicode="&#xe05d;" 
d="M1200 1280c-16 0 -31.668 -0.999023 -47.001 -2.99902c-45.333 61.333 -101.666 109.166 -168.999 143.499s-139.333 51.5 -216 51.5s-148.667 -17.167 -216 -51.5s-123.666 -82.166 -168.999 -143.499c-15.333 2 -31 3 -47 3c-92.667 0 -171.834 -32.833 -237.501 -98.5
s-98.5 -144.834 -98.5 -237.501s32.833 -171.834 98.5 -237.501s144.834 -98.5 237.501 -98.5c41.333 0 81 7.33301 119 22c65.333 -57.333 140.333 -94 225 -110l-104 -104l96 -96l-96 -288l288 288l-96 96l33 99c107.333 7.33301 200.666 45.666 279.999 114.999
c38 -14.667 77.667 -22 119 -22c92.667 0 171.834 32.833 237.501 98.5s98.5 144.834 98.5 237.501s-32.833 171.834 -98.5 237.501s-144.834 98.5 -237.501 98.5z" />
    </font>
</defs>
</svg>
